<?xml version="1.0" encoding="utf-8"?>
<!-- Generator: Adobe Illustrator 16.0.0, SVG Export Plug-In . SVG Version: 6.00 Build 0)  -->
<!DOCTYPE svg PUBLIC "-//W3C//DTD SVG 1.1//EN" "http://www.w3.org/Graphics/SVG/1.1/DTD/svg11.dtd">
<svg version="1.1" id="Layer_1" xmlns="http://www.w3.org/2000/svg" xmlns:xlink="http://www.w3.org/1999/xlink" x="0px" y="0px"
	 width="130px" height="130px" viewBox="0 0 130 130" enable-background="new 0 0 130 130" xml:space="preserve">
<g>
	<g id="Shape_1_copy_3_28_">
		<ellipse fill="#FF7E30" cx="65" cy="65" rx="64" ry="64.018"/>
	</g>
	<g id="Shape_26_copy">
		<path fill="#FFFFFF" d="M87.252,87.051c-3.764-8.467-8.99-14-13.17-17.348c3.133-0.416,6.686-1.666,11.703-4.492l1.568-0.831
			l-0.734-1.78l-3.969-9.092l-0.938-2.086l-1.99,1.147c-0.102,0.103-4.283,2.196-9.086,1.673c5.225-1.359,9.086-6.062,9.086-11.703
			c0-6.796-5.43-12.226-12.219-12.226c-6.693,0-12.125,5.43-12.125,12.226c0,2.718,0.939,5.226,2.51,7.312
			c-6.578,4.493-8.461,11.913-8.986,18.498c-0.209,1.672-0.312,2.195-0.312,2.4c-4.178,8.568-13.164,9.824-13.582,9.928
			l-2.613,0.312l0.939,2.404l4.281,11.594l0.523,1.674l1.781-0.416c13.061-2.719,17.756-8.779,21.521-13.686
			c9.195,4.592,12.537,12.008,12.537,12.008c0.314,0.42,1.047,1.883,1.047,1.883l1.775-1.15l9.609-5.639l1.678-0.939L87.252,87.051z
			"/>
	</g>
</g>
</svg>
