<?xml version="1.0" encoding="utf-8"?>
<!-- Generator: Adobe Illustrator 16.0.0, SVG Export Plug-In . SVG Version: 6.00 Build 0)  -->
<!DOCTYPE svg PUBLIC "-//W3C//DTD SVG 1.1//EN" "http://www.w3.org/Graphics/SVG/1.1/DTD/svg11.dtd">
<svg version="1.1" id="Layer_1" xmlns="http://www.w3.org/2000/svg" xmlns:xlink="http://www.w3.org/1999/xlink" x="0px" y="0px"
	 width="130px" height="130px" viewBox="0 0 130 130" enable-background="new 0 0 130 130" xml:space="preserve">
<g>
	<g id="Shape_1_copy_3_22_">
		<ellipse fill="#EE3849" cx="65" cy="65" rx="64" ry="64.017"/>
	</g>
	<g id="Shape_153">
		<path fill="#FFFFFF" d="M74.044,52.203H63.407c-2.937,0-5.318,2.378-5.318,5.318c0,2.934,2.382,5.318,5.318,5.318h10.637
			c2.46,0,5.318,4.061,5.318,9.307c0,5.131-4.771,9.307-10.637,9.307h-5.318c-5.864,0-10.637-4.772-10.637-10.637V44.225
			c0-2.94-2.381-5.318-5.318-5.318c-2.937,0-5.318,2.378-5.318,5.318v26.592c0,11.729,9.544,21.273,21.273,21.273h5.318
			c11.73,0,21.273-8.948,21.273-19.943C89.999,61.146,82.842,52.203,74.044,52.203z"/>
	</g>
</g>
</svg>
