<?xml version="1.0" encoding="utf-8"?>
<!-- Generator: Adobe Illustrator 16.0.0, SVG Export Plug-In . SVG Version: 6.00 Build 0)  -->
<!DOCTYPE svg PUBLIC "-//W3C//DTD SVG 1.1//EN" "http://www.w3.org/Graphics/SVG/1.1/DTD/svg11.dtd">
<svg version="1.1" id="Layer_1" xmlns="http://www.w3.org/2000/svg" xmlns:xlink="http://www.w3.org/1999/xlink" x="0px" y="0px"
	 width="130px" height="130px" viewBox="0 0 130 130" enable-background="new 0 0 130 130" xml:space="preserve">
<g id="Shape_1_copy_3_37_">
	<ellipse fill="#FF8E2E" cx="64.904" cy="65" rx="64" ry="64.017"/>
</g>
<g id="Shape_9">
	<path fill="#FFFFFF" d="M91.266,60.676l-0.429-0.886l-0.717-0.563c-0.938-0.733-5.681,0.049-6.958-1.112
		c-0.907-0.834-1.046-2.333-1.32-4.363c-0.509-3.945-0.833-4.148-1.446-5.48c-2.234-4.742-8.292-8.308-12.457-8.801H56.665
		c-8.871,0-16.122,7.265-16.122,16.136v18.818c0,8.857,7.251,16.107,16.122,16.107h18.524c8.871,0,16.076-7.25,16.126-16.107
		l0.101-13.034L91.266,60.676z M56.87,52.653h8.94c1.706,0,3.087,1.386,3.087,3.078c0,1.686-1.381,3.086-3.087,3.086h-8.94
		c-1.706,0-3.088-1.4-3.088-3.086C53.782,54.039,55.164,52.653,56.87,52.653z M75.035,77.257H56.87
		c-1.706,0-3.088-1.402-3.088-3.073c0-1.69,1.382-3.066,3.088-3.066h18.165c1.695,0,3.071,1.376,3.071,3.066
		C78.106,75.854,76.73,77.257,75.035,77.257z"/>
</g>
</svg>
