<?xml version="1.0" encoding="utf-8"?>
<!-- Generator: Adobe Illustrator 16.0.0, SVG Export Plug-In . SVG Version: 6.00 Build 0)  -->
<!DOCTYPE svg PUBLIC "-//W3C//DTD SVG 1.1//EN" "http://www.w3.org/Graphics/SVG/1.1/DTD/svg11.dtd">
<svg version="1.1" id="Layer_1" xmlns="http://www.w3.org/2000/svg" xmlns:xlink="http://www.w3.org/1999/xlink" x="0px" y="0px"
	 width="130px" height="130px" viewBox="0 0 130 130" enable-background="new 0 0 130 130" xml:space="preserve">
<g>
	<g id="Shape_1_copy_3_27_">
		<ellipse fill="#6A8A7B" cx="65" cy="65" rx="64" ry="64.017"/>
	</g>
	<g id="Shape_22_copy">
		<path fill="#FFFFFF" d="M76.887,58.938c-3.535-0.652-7.561-0.853-11.844-0.138l8.88,18.049l38.37-11.053
			c0,0-13.917-21.853-55.42-14.788c-0.245,0.036-0.458,0.094-0.699,0.138l-4.029-8.184L40.2,44.319l4.871,9.96
			C19.886,64.679,31.044,89.201,31.044,89.201L69.47,78.136L58.91,56.704c18.949-5.445,34.775,5.688,34.775,5.688l-13.044,3.524
			L76.887,58.938z M41.441,76.496c0,0-3.702-8.175,7.07-15.179l5.729,11.726L41.441,76.496z"/>
	</g>
</g>
</svg>
