<?xml version="1.0" encoding="utf-8"?>
<!-- Generator: Adobe Illustrator 16.0.0, SVG Export Plug-In . SVG Version: 6.00 Build 0)  -->
<!DOCTYPE svg PUBLIC "-//W3C//DTD SVG 1.1//EN" "http://www.w3.org/Graphics/SVG/1.1/DTD/svg11.dtd">
<svg version="1.1" id="Layer_1" xmlns="http://www.w3.org/2000/svg" xmlns:xlink="http://www.w3.org/1999/xlink" x="0px" y="0px"
	 width="130px" height="130px" viewBox="0 0 130 130" enable-background="new 0 0 130 130" xml:space="preserve">
<g>
	<g id="Shape_1_copy_3_13_">
		<ellipse fill="#75788D" cx="65" cy="65" rx="64" ry="64.017"/>
	</g>
	<g id="Digg_icon">
		<path fill="#FFFFFF" d="M38.276,54.553H27.459v23.698h18.029c0,0,0-4.857,0-10.835c0-9.559,0-21.979,0-21.979h-7.212V54.553z
			 M38.276,70.32h-3.605v-8.886h3.605V70.32z M48.785,78.249h6.546V55.27h-6.546V78.249z M81.687,53.659V77.22h10.734v3.625H81.687
			v7.251h17.891V53.659H81.687z M92.365,70.32h-3.606v-8.886h3.606V70.32z M60.22,77.22h10.734v3.625H60.22v7.251h17.89V53.659
			H60.22V77.22z M67.124,61.435h3.605v8.886h-3.605V61.435z M48.785,50.393h6.546v-4.953h-6.546V50.393z"/>
	</g>
</g>
</svg>
