<?xml version="1.0" encoding="utf-8"?>
<!-- Generator: Adobe Illustrator 16.0.0, SVG Export Plug-In . SVG Version: 6.00 Build 0)  -->
<!DOCTYPE svg PUBLIC "-//W3C//DTD SVG 1.1//EN" "http://www.w3.org/Graphics/SVG/1.1/DTD/svg11.dtd">
<svg version="1.1" id="Layer_1" xmlns="http://www.w3.org/2000/svg" xmlns:xlink="http://www.w3.org/1999/xlink" x="0px" y="0px"
	 width="130px" height="130px" viewBox="0 0 130 130" enable-background="new 0 0 130 130" xml:space="preserve">
<g>
	<g id="Shape_1_copy_3_34_">
		<ellipse fill="#0481D9" cx="65" cy="65" rx="64" ry="64.017"/>
	</g>
	<g id="Shape_6_copy">
		<path fill="#FFFFFF" d="M81.644,48.438h8.02v-9.361h-8.02c-7.036,0-12.756,6.373-12.756,14.209v4.735h-4.736h-4.737h-4.735v-4.735
			c0-2.795,1.729-4.848,3.284-4.848h8.02v-9.361h-8.02c-7.036,0-12.758,6.373-12.758,14.209v4.735h-9.472v9.469h9.472v23.686h9.474
			V67.489h4.735h4.737h4.736v23.686h9.472V67.489h9.473v-9.469h-9.473v-4.735C78.359,50.49,80.089,48.438,81.644,48.438z"/>
	</g>
</g>
</svg>
