<?xml version="1.0" encoding="utf-8"?>
<!-- Generator: Adobe Illustrator 16.0.0, SVG Export Plug-In . SVG Version: 6.00 Build 0)  -->
<!DOCTYPE svg PUBLIC "-//W3C//DTD SVG 1.1//EN" "http://www.w3.org/Graphics/SVG/1.1/DTD/svg11.dtd">
<svg version="1.1" id="Layer_1" xmlns="http://www.w3.org/2000/svg" xmlns:xlink="http://www.w3.org/1999/xlink" x="0px" y="0px"
	 width="130px" height="130px" viewBox="0 0 130 130" enable-background="new 0 0 130 130" xml:space="preserve">
<g>
	<g id="Shape_1_copy_3_5_">
		<ellipse fill="#FA7100" cx="65" cy="65" rx="64" ry="64.017"/>
	</g>
	<g id="Grooveshark_icon">
		<path fill="#FFFFFF" d="M64.952,27.223c-20.566,0-37.238,16.672-37.238,37.238c0,20.567,16.672,37.24,37.238,37.24
			s37.238-16.673,37.238-37.24C102.19,43.895,85.519,27.223,64.952,27.223z M64.952,34.281c16.568,0,30.006,13.341,30.166,29.856
			c-0.007,0.104-0.02,0.195-0.02,0.323c0,5.32-3.482,8.866-7.029,8.866c-7.157,0-5.176-8.173-14.191-17.187
			C61.983,44.244,52.539,44.956,52.539,44.956c3.713,15.794-3.547,28.371-10.641,28.371c-5.319,0-7.093-5.264-7.093-8.866
			l-0.035-0.018c0-0.003,0-0.006,0-0.01C34.771,47.781,48.283,34.281,64.952,34.281z"/>
	</g>
</g>
</svg>
