<?xml version="1.0" encoding="utf-8"?>
<!-- Generator: Adobe Illustrator 16.0.0, SVG Export Plug-In . SVG Version: 6.00 Build 0)  -->
<!DOCTYPE svg PUBLIC "-//W3C//DTD SVG 1.1//EN" "http://www.w3.org/Graphics/SVG/1.1/DTD/svg11.dtd">
<svg version="1.1" id="Layer_1" xmlns="http://www.w3.org/2000/svg" xmlns:xlink="http://www.w3.org/1999/xlink" x="0px" y="0px"
	 width="130px" height="130px" viewBox="0 0 130 130" enable-background="new 0 0 130 130" xml:space="preserve">
<g>
	<g id="Shape_1_copy_3_14_">
		<ellipse fill="#008DDE" cx="65" cy="65" rx="64" ry="64.017"/>
	</g>
	<g id="Myspace_icon">
		<path fill="#FFFFFF" d="M35.506,72.326c-5.34,0-9.671,4.308-9.671,9.625c0,1.271,0,2.788,0,4.358h19.337
			c0.005-1.951,0.008-3.616,0.008-4.358C45.18,76.634,40.849,72.326,35.506,72.326z M87.275,65.244
			c6.786,0,12.287-5.5,12.287-12.284s-5.501-12.283-12.287-12.283c-6.787,0-12.288,5.499-12.288,12.283S80.488,65.244,87.275,65.244
			z M35.506,49.505c-5.34,0-9.671,4.309-9.671,9.625c0,5.315,4.331,9.625,9.671,9.625c5.343,0,9.674-4.31,9.674-9.625
			C45.18,53.813,40.849,49.505,35.506,49.505z M87.275,68.763c-6.787,0-12.288,5.5-12.288,12.284c0,0.888,0,2.934,0,5.263h24.575
			c0-1.777,0-3.587,0-5.263C99.562,74.263,94.062,68.763,87.275,68.763z M60.08,70.584c-6.311,0-11.426,5.103-11.426,11.397
			c0,1.371,0,2.852,0,4.328h22.844c0.005-1.893,0.006-3.526,0.006-4.328C71.504,75.687,66.39,70.584,60.08,70.584z M60.08,44.252
			c-6.311,0-11.426,5.104-11.426,11.398S53.77,67.048,60.08,67.048c6.31,0,11.424-5.103,11.424-11.397S66.39,44.252,60.08,44.252z"
			/>
	</g>
</g>
</svg>
