<?xml version="1.0" encoding="utf-8"?>
<!-- Generator: Adobe Illustrator 16.0.0, SVG Export Plug-In . SVG Version: 6.00 Build 0)  -->
<!DOCTYPE svg PUBLIC "-//W3C//DTD SVG 1.1//EN" "http://www.w3.org/Graphics/SVG/1.1/DTD/svg11.dtd">
<svg version="1.1" id="Layer_1" xmlns="http://www.w3.org/2000/svg" xmlns:xlink="http://www.w3.org/1999/xlink" x="0px" y="0px"
	 width="130px" height="130px" viewBox="0 0 130 130" enable-background="new 0 0 130 130" xml:space="preserve">
<g>
	<g id="Shape_1_copy_3_35_">
		<ellipse fill="#67AF3E" cx="65" cy="65" rx="64" ry="64.017"/>
	</g>
	<g id="Shape_15_copy">
		<path fill="#FFFFFF" d="M75.997,70.38c0.784,0.496,1.706,0.787,2.703,0.787c2.799,0,5.07-2.271,5.07-5.078
			c0-2.801-2.271-5.073-5.07-5.073c-2.804,0-5.077,2.272-5.077,5.073c0,0.211,0.017,0.418,0.039,0.627l-6.249,4.526V57.121
			l8.647-6.266c0.775,0.469,1.671,0.746,2.64,0.746c2.799,0,5.07-2.272,5.07-5.074s-2.271-5.079-5.07-5.079
			c-2.804,0-5.077,2.277-5.077,5.079c0,0.235,0.02,0.473,0.055,0.7l-6.265,4.539V30.336h-4.94v11.312l-6.298-4.558
			c0.057-0.304,0.09-0.614,0.09-0.937c0-2.803-2.277-5.073-5.078-5.073s-5.07,2.271-5.07,5.073c0,2.801,2.27,5.075,5.07,5.075
			c0.885,0,1.717-0.229,2.442-0.624l8.844,6.4v14.121l-6.288-4.552c0.05-0.275,0.08-0.563,0.08-0.852c0-2.811-2.277-5.08-5.078-5.08
			s-5.07,2.27-5.07,5.08c0,2.799,2.27,5.07,5.07,5.07c0.914,0,1.769-0.243,2.506-0.663l8.78,6.354v15.057l-6.283-4.548
			c0.045-0.274,0.075-0.551,0.075-0.834c0-2.803-2.277-5.077-5.078-5.077s-5.07,2.274-5.07,5.077c0,2.801,2.27,5.073,5.07,5.073
			c0.922,0,1.781-0.251,2.525-0.677l8.761,6.341v15.085h0.406h4.341h0.193V97.01l8.567-6.198c0.786,0.496,1.715,0.792,2.72,0.792
			c2.799,0,5.07-2.271,5.07-5.075c0-2.803-2.271-5.072-5.07-5.072c-2.804,0-5.077,2.27-5.077,5.072c0,0.206,0.017,0.405,0.037,0.604
			l-6.247,4.526V76.601L75.997,70.38z"/>
	</g>
</g>
</svg>
