<?xml version="1.0" encoding="utf-8"?>
<!-- Generator: Adobe Illustrator 16.0.0, SVG Export Plug-In . SVG Version: 6.00 Build 0)  -->
<!DOCTYPE svg PUBLIC "-//W3C//DTD SVG 1.1//EN" "http://www.w3.org/Graphics/SVG/1.1/DTD/svg11.dtd">
<svg version="1.1" id="Layer_1" xmlns="http://www.w3.org/2000/svg" xmlns:xlink="http://www.w3.org/1999/xlink" x="0px" y="0px"
	 width="130px" height="130px" viewBox="0 0 130 130" enable-background="new 0 0 130 130" xml:space="preserve">
<g>
	<g id="Shape_156">
		<path fill="#2B68AD" d="M5.612,88.803c5.129,12.859,14.491,23.77,26.44,31V64.766C29.915,66.711,6.348,88.131,5.612,88.803z"/>
	</g>
	<g id="Shape_160">
		<path fill="#129346" d="M38.778,92.95c0,1.333,0,29.624,0,30.543c6.504,2.921,13.319,4.724,20.32,5.375h11.734
			c22.112-2.06,41.847-15.688,51.656-35.918C120.181,92.95,40.153,92.95,38.778,92.95z"/>
	</g>
	<g id="Shape_159">
		<path fill="#F48B35" d="M98.134,10.538v75.674h27.234C127.747,79.387,129,72.306,129,65.139
			C129,42.893,117.175,22.13,98.134,10.538z"/>
	</g>
	<g id="Shape_158">
		<path fill="#EE4156" d="M64.995,1.132c-7.63,0-15.128,1.473-22.346,4.176c1.694,1.535,46.554,42.256,48.738,44.24V6.87
			C83.033,3.079,74.16,1.132,64.995,1.132z"/>
	</g>
	<g id="Shape_157">
		<path fill="#8A5A9F" d="M35.834,8.229C14.346,19.261,1,41.006,1,65.139c0,5.492,0.826,11.079,2.33,16.625
			c1.729-1.577,55.612-50.537,56.722-51.549C58.975,29.232,36.564,8.896,35.834,8.229z"/>
	</g>
</g>
</svg>
