<?xml version="1.0" encoding="utf-8"?>
<!-- Generator: Adobe Illustrator 16.0.0, SVG Export Plug-In . SVG Version: 6.00 Build 0)  -->
<!DOCTYPE svg PUBLIC "-//W3C//DTD SVG 1.1//EN" "http://www.w3.org/Graphics/SVG/1.1/DTD/svg11.dtd">
<svg version="1.1" id="Layer_1" xmlns="http://www.w3.org/2000/svg" xmlns:xlink="http://www.w3.org/1999/xlink" x="0px" y="0px"
	 width="130px" height="130px" viewBox="0 0 130 130" enable-background="new 0 0 130 130" xml:space="preserve">
<g>
	<g id="Shape_1_copy_3_4_">
		<ellipse fill="#EA3123" cx="65" cy="65" rx="64" ry="64.017"/>
	</g>
	<g id="Quora_icon">
		<path fill="#FFFFFF" d="M80.993,89.953c8.544-5.429,14.288-15.136,14.288-26.211c0-17.013-13.482-30.808-30.051-30.808
			c-16.566,0-29.996,13.795-29.996,30.808c0,17.017,13.43,30.148,29.996,30.148c2.439,0,4.878,0,7.072-0.21
			c2.848,5.25,7.264,8.965,16.471,7.188v-5.223C88.773,95.646,82.791,94.144,80.993,89.953z M80.632,67.817
			c0,5.143-1.465,9.811-4.088,13.26c-3.297-3.555-8.009-6.226-14.565-5.853v5.802c0,0,3.991,0.179,7.035,5.481
			c-1.338,0-2.546,0.083-3.771,0.083c-8.463,0-15.407-8.161-15.407-18.773c0-1.362,0-6.576,0-7.938
			c0-10.612,7.163-19.52,15.625-19.52c8.463,0,15.171,8.907,15.171,19.52C80.632,61.241,80.632,66.455,80.632,67.817z"/>
	</g>
</g>
</svg>
