<?xml version="1.0" encoding="utf-8"?>
<!-- Generator: Adobe Illustrator 16.0.0, SVG Export Plug-In . SVG Version: 6.00 Build 0)  -->
<!DOCTYPE svg PUBLIC "-//W3C//DTD SVG 1.1//EN" "http://www.w3.org/Graphics/SVG/1.1/DTD/svg11.dtd">
<svg version="1.1" id="Layer_1" xmlns="http://www.w3.org/2000/svg" xmlns:xlink="http://www.w3.org/1999/xlink" x="0px" y="0px"
	 width="130px" height="130px" viewBox="0 0 130 130" enable-background="new 0 0 130 130" xml:space="preserve">
<g>
	<g id="Shape_1_copy_3_21_">
		<ellipse fill="#FF8E2E" cx="65" cy="65" rx="64" ry="64.017"/>
	</g>
	<g id="Shape_147">
		<path fill="#FFFFFF" d="M67.252,63.564c-9.04-8.487-25.201-10.479-25.201-10.479c-1.816,0-3.296,1.265-3.296,3.086v5.772
			c0,1.82,1.479,3.089,3.296,3.097c0,0,10.389,0.272,16.626,6.057c8.234,7.636,8.012,18.228,8.012,18.228
			c0,1.825,0.859,3.305,2.683,3.305h6.388c1.819,0,2.265-1.479,2.265-3.305C78.023,89.324,76.501,72.231,67.252,63.564z
			 M47.307,76.476c-4.512,0-8.172,3.664-8.172,8.172c0,4.523,3.66,8.181,8.172,8.181c4.517,0,8.18-3.657,8.18-8.181
			C55.486,80.14,51.826,76.476,47.307,76.476z M83.433,52.091C69.211,34.938,42.051,33.082,42.051,33.082
			c-1.816,0-3.296,1.272-3.296,3.097v5.771c0,1.824,1.479,3.089,3.296,3.089c0,0,19.409,0.625,30.354,13.559
			C87.406,74.03,86.269,89.459,86.269,89.459c0,1.821,1.473,3.297,3.301,3.297h6.387c1.825,0,2.891-1.476,2.891-3.297
			C98.847,89.459,97.496,65.189,83.433,52.091z"/>
	</g>
</g>
</svg>
