<?xml version="1.0" encoding="utf-8"?>
<!-- Generator: Adobe Illustrator 16.0.0, SVG Export Plug-In . SVG Version: 6.00 Build 0)  -->
<!DOCTYPE svg PUBLIC "-//W3C//DTD SVG 1.1//EN" "http://www.w3.org/Graphics/SVG/1.1/DTD/svg11.dtd">
<svg version="1.1" id="Layer_1" xmlns="http://www.w3.org/2000/svg" xmlns:xlink="http://www.w3.org/1999/xlink" x="0px" y="0px"
	 width="130px" height="130px" viewBox="0 0 130 130" enable-background="new 0 0 130 130" xml:space="preserve">
<g>
	<g id="Shape_1_copy_3_26_">
		<ellipse fill="#29AECB" cx="65" cy="65" rx="64" ry="64.017"/>
	</g>
	<g id="Shape_5_copy">
		<path fill="#FFFFFF" d="M94.924,68.542c0.18-1.336,0.283-2.694,0.283-4.079c0-16.596-13.526-30.051-30.209-30.051
			c-1.658,0-3.285,0.136-4.865,0.396c-2.836-1.849-6.211-2.926-9.846-2.926c-9.963,0-18.026,8.071-18.026,18.029
			c0,3.624,1.065,6.989,2.901,9.815c-0.248,1.545-0.371,3.126-0.371,4.736c0,16.6,13.518,30.054,30.207,30.054
			c1.881,0,3.719-0.183,5.5-0.504c2.767,1.717,6.028,2.717,9.529,2.717c9.958,0,18.025-8.072,18.025-18.03
			C98.053,74.935,96.899,71.435,94.924,68.542z M67.159,81.087c-7.22,0.376-10.602-1.222-13.695-4.126
			c-3.46-3.246-2.071-6.948,0.747-7.135c2.815-0.188,4.507,3.191,6.007,4.131c1.5,0.938,7.213,3.069,10.229-0.378
			c3.286-3.753-2.187-5.694-6.192-6.285c-5.723-0.845-12.951-3.941-12.389-10.045c0.562-6.096,5.179-9.222,10.039-9.663
			c6.196-0.562,10.229,0.938,13.417,3.66c3.689,3.145,1.693,6.659-0.656,6.942c-2.343,0.28-4.971-5.172-10.133-5.254
			c-5.316-0.083-8.913,5.534-2.345,7.133c6.567,1.596,13.606,2.252,16.138,8.257C80.862,74.331,74.385,80.711,67.159,81.087z"/>
	</g>
</g>
</svg>
