<?xml version="1.0" encoding="utf-8"?>
<!-- Generator: Adobe Illustrator 16.0.0, SVG Export Plug-In . SVG Version: 6.00 Build 0)  -->
<!DOCTYPE svg PUBLIC "-//W3C//DTD SVG 1.1//EN" "http://www.w3.org/Graphics/SVG/1.1/DTD/svg11.dtd">
<svg version="1.1" id="Layer_1" xmlns="http://www.w3.org/2000/svg" xmlns:xlink="http://www.w3.org/1999/xlink" x="0px" y="0px"
	 width="130px" height="130px" viewBox="0 0 130 130" enable-background="new 0 0 130 130" xml:space="preserve">
<g>
	<g id="Shape_1_copy_3_12_">
		<ellipse fill="#FF5C30" cx="65" cy="65" rx="64" ry="64.017"/>
	</g>
	<g id="Shape_161">
		<path fill="#FFFFFF" d="M87.035,66.063v9.906c0,2.021-1.639,3.66-3.66,3.66s-3.66-1.639-3.66-3.66v-9.718l-7.045,2.103l-4.725-2.2
			v9.638c0.073,8.475,6.968,15.325,15.462,15.325c8.54,0,15.462-6.922,15.462-15.463c0-0.111,0-9.591,0-9.591H87.035z
			 M67.945,58.075l4.725,2.202l7.045-2.103v-4.888c-0.25-8.321-7.05-14.994-15.431-14.994c-8.351,0-15.134,6.623-15.432,14.902
			v22.333c0,2.021-1.639,3.66-3.66,3.66s-3.66-1.639-3.66-3.66v-9.465H29.698c0,0,0,9.479,0,9.591
			c0,8.541,6.924,15.463,15.462,15.463c8.465,0,15.326-6.804,15.446-15.24l0.018-22.059c0-2.021,1.639-3.661,3.66-3.661
			s3.661,1.64,3.661,3.661V58.075z"/>
	</g>
</g>
</svg>
