<?xml version="1.0" encoding="utf-8"?>
<!-- Generator: Adobe Illustrator 16.0.0, SVG Export Plug-In . SVG Version: 6.00 Build 0)  -->
<!DOCTYPE svg PUBLIC "-//W3C//DTD SVG 1.1//EN" "http://www.w3.org/Graphics/SVG/1.1/DTD/svg11.dtd">
<svg version="1.1" id="Layer_1" xmlns="http://www.w3.org/2000/svg" xmlns:xlink="http://www.w3.org/1999/xlink" x="0px" y="0px"
	 width="130px" height="130px" viewBox="0 0 130 130" enable-background="new 0 0 130 130" xml:space="preserve">
<g>
	<g id="Shape_1_copy_3_38_">
		<ellipse fill="#25A774" cx="65" cy="65" rx="64" ry="64.017"/>
	</g>
	<g id="Shape_167">
		<path fill="#FFFFFF" d="M92.709,73.578c7.879-1.619,5.146-8.543,2.613-9.67c-2.016-0.896-4.352-0.824-2.748-1.464
			c1.246-0.496,4.029-1.325,4.029-4.337c0-1.369-0.439-2.242-1.027-2.798c-1.121-1.06-2.822-1.141-3.215-1.141c0,0-7.623,0-11.121,0
			c-0.686,0-1.736-0.566-1.859-1.242c-0.395-2.163-0.803-4.666,1.262-8.772c0.752-1.495,0.791-4.912-0.186-8.611
			c-0.797-3.023-2.252-6.139-4.455-8.406c-0.434-0.336-3.428-2.469-5.535,0.84v8.87c0,0.078-0.006,0.155-0.021,0.229
			c-0.066,0.605-0.43,3.497-1.553,5.465c-0.688,1.202-3.812,6.253-6.562,10.477c-1.76,2.703-3.377,5.075-4.129,5.909
			c-1.49,1.649-4.189,1.844-5.854,1.786v31.15l-0.125,0.049c0.512-0.256,3.643,2.811,11.391,2.922
			c10.512,0.148,17.336-1.264,23.023-2.426c0.957-0.197,2.85-0.957,3.811-1.672c0.641-0.471,1.408-1.066,1.807-1.758
			c0.381-0.654,0.611-1.4,0.611-2.207c0-3.557-2.553-3.295-2.391-4.02c0.117-0.533,0.455-0.5,0.963-0.697
			c5.969-2.322,3.207-7.189,1.482-7.623C91.883,74.168,92.012,73.723,92.709,73.578z"/>
	</g>
	<g id="Shape_166">
		<path fill="#FF7E30" d="M52.393,55.734c-3.846,0-14.695,0-14.695,0s-5.648-0.602-5.285,5.525c0.359,6.126,2.041,30.03,2.041,30.03
			s0,6.246,6.246,6.246c6.248,0,12.291,0,12.291,0s2.283,0.121,2.283-2.883s0-2.883,0-2.883V59.697
			C55.273,59.697,56.232,55.734,52.393,55.734z"/>
	</g>
</g>
</svg>
