<?xml version="1.0" encoding="utf-8"?>
<!-- Generator: Adobe Illustrator 16.0.0, SVG Export Plug-In . SVG Version: 6.00 Build 0)  -->
<!DOCTYPE svg PUBLIC "-//W3C//DTD SVG 1.1//EN" "http://www.w3.org/Graphics/SVG/1.1/DTD/svg11.dtd">
<svg version="1.1" id="Layer_1" xmlns="http://www.w3.org/2000/svg" xmlns:xlink="http://www.w3.org/1999/xlink" x="0px" y="0px"
	 width="130px" height="130px" viewBox="0 0 130 130" enable-background="new 0 0 130 130" xml:space="preserve">
<g>
	<g id="Shape_1_copy_3_23_">
		<ellipse fill="#426D9B" cx="65" cy="65" rx="64" ry="64.017"/>
	</g>
	<g id="Shape_155">
		<path fill="#FFFFFF" d="M71.413,81.523c-1.523,0-2.874-0.355-4.059-1.064c-0.894-0.524-1.711-1.434-2.038-2.31
			c-0.329-0.88-0.289-2.668-0.289-5.772V58.659h12.37v-9.548h-12.37V36.737h-7.608c-0.342,2.76-0.966,5.035-1.873,6.818
			c-0.907,1.789-2.107,3.317-3.61,4.595c-1.497,1.272-3.933,2.252-6.034,2.934v7.575h7.268v18.763c0,2.445,0.257,4.314,0.771,5.602
			c0.514,1.288,1.431,2.503,2.761,3.649c1.325,1.135,2.929,2.02,4.808,2.641c1.879,0.614,3.321,0.922,5.768,0.922
			c2.153,0,4.157-0.218,6.012-0.648c1.852-0.436,3.925-1.192,6.208-2.267v-8.438C76.816,80.644,74.123,81.523,71.413,81.523z"/>
	</g>
</g>
</svg>
