<?xml version="1.0" encoding="utf-8"?>
<!-- Generator: Adobe Illustrator 16.0.0, SVG Export Plug-In . SVG Version: 6.00 Build 0)  -->
<!DOCTYPE svg PUBLIC "-//W3C//DTD SVG 1.1//EN" "http://www.w3.org/Graphics/SVG/1.1/DTD/svg11.dtd">
<svg version="1.1" id="Layer_1" xmlns="http://www.w3.org/2000/svg" xmlns:xlink="http://www.w3.org/1999/xlink" x="0px" y="0px"
	 width="130px" height="130px" viewBox="0 0 130 130" enable-background="new 0 0 130 130" xml:space="preserve">
<g>
	<g id="Shape_1_copy_3_20_">
		<ellipse fill="#00ACF0" cx="65" cy="65" rx="64" ry="64.017"/>
	</g>
	<g id="T_-_White_copy_3">
		<path fill="#FFFFFF" d="M78.299,78.825h-18.51c-0.773,0-1.019-0.471-1.019-1.301V67.193h19.528c3.939,0,7.163-3.206,7.163-7.165
			c0-3.94-3.224-7.164-7.163-7.164H58.771v-7.014c0-3.941-3.223-7.165-7.162-7.165c-3.958,0-7.162,3.224-7.162,7.165v30.92
			c0,0.111,0,0.206-0.019,0.301c0,9.126,5.106,15.78,15.625,16.063c0.17,0,0.34,0.02,0.528,0.02h17.718
			c3.939,0,7.163-3.224,7.163-7.165C85.462,82.031,82.238,78.825,78.299,78.825z"/>
	</g>
</g>
</svg>
