<?xml version="1.0" encoding="utf-8"?>
<!-- Generator: Adobe Illustrator 16.0.0, SVG Export Plug-In . SVG Version: 6.00 Build 0)  -->
<!DOCTYPE svg PUBLIC "-//W3C//DTD SVG 1.1//EN" "http://www.w3.org/Graphics/SVG/1.1/DTD/svg11.dtd">
<svg version="1.1" id="Layer_1" xmlns="http://www.w3.org/2000/svg" xmlns:xlink="http://www.w3.org/1999/xlink" x="0px" y="0px"
	 width="130px" height="130px" viewBox="0 0 130 130" enable-background="new 0 0 130 130" xml:space="preserve">
<g>
	<g id="Shape_1_copy_3_15_">
		<ellipse fill="#20B6FF" cx="65" cy="65" rx="64" ry="64.017"/>
	</g>
	<g id="Shape_13_copy">
		<path fill="#FFFFFF" d="M66.551,54.949c7.272-4.366,11.154,1.773,7.433,8.725c-3.715,6.944-7.107,11.474-8.886,11.474
			c-1.773,0-3.139-4.647-5.17-12.771c-2.102-8.397-2.088-23.523-10.823-21.808c-8.236,1.616-19.062,14.543-19.062,14.543
			l2.585,3.391c0,0,5.331-4.201,7.107-2.101c1.777,2.101,8.562,27.471,10.826,32.149c1.977,4.104,7.43,9.53,13.409,5.655
			c5.976-3.874,25.848-20.84,29.403-40.874C96.928,33.303,69.461,37.499,66.551,54.949z"/>
	</g>
</g>
</svg>
