<?xml version="1.0" encoding="utf-8"?>
<!-- Generator: Adobe Illustrator 16.0.0, SVG Export Plug-In . SVG Version: 6.00 Build 0)  -->
<!DOCTYPE svg PUBLIC "-//W3C//DTD SVG 1.1//EN" "http://www.w3.org/Graphics/SVG/1.1/DTD/svg11.dtd">
<svg version="1.1" id="Layer_1" xmlns="http://www.w3.org/2000/svg" xmlns:xlink="http://www.w3.org/1999/xlink" x="0px" y="0px"
	 width="130px" height="130px" viewBox="0 0 130 130" enable-background="new 0 0 130 130" xml:space="preserve">
<g>
	<g id="Shape_1_copy_3_17_">
		<ellipse fill="#0481D9" cx="65" cy="65" rx="64" ry="64.017"/>
	</g>
	<g id="Shape_30">
		<path fill="#FFFFFF" d="M64.267,31.622c-19.087,0-34.561,15.28-34.561,34.128c0,18.845,15.474,34.125,34.561,34.125
			c19.089,0,34.562-15.28,34.562-34.125C98.829,46.902,83.355,31.622,64.267,31.622z"/>
	</g>
	<g id="Shape_16_copy">
		<path fill="#0481D9" d="M33.701,65.28c0,11.946,7.058,22.278,17.293,27.168L36.359,52.997
			C34.656,56.75,33.701,60.906,33.701,65.28z M64.923,67.925l-9.209,26.316c2.748,0.799,5.656,1.232,8.67,1.232
			c3.57,0,6.999-0.608,10.188-1.716c-0.082-0.127-0.157-0.263-0.218-0.411L64.923,67.925z M91.303,50.798
			c0.137,0.962,0.213,1.994,0.213,3.106c0,3.061-0.585,6.505-2.336,10.812l-9.369,26.657c9.118-5.232,15.251-14.955,15.251-26.093
			C95.062,60.032,93.698,55.1,91.303,50.798z M85.098,63.759c0-3.734-1.369-6.315-2.532-8.326c-1.555-2.487-3.013-4.592-3.013-7.083
			c0-2.772,2.134-5.355,5.154-5.355c0.133,0,0.264,0.018,0.394,0.023c-5.456-4.918-12.729-7.925-20.717-7.925
			c-10.719,0-20.15,5.411-25.633,13.61c0.72,0.021,1.396,0.035,1.972,0.035c3.21,0,8.18-0.389,8.18-0.389
			c1.648-0.09,1.847,2.3,0.193,2.491c0,0-1.661,0.19-3.513,0.287l11.176,32.697l6.711-19.808l-4.777-12.89
			c-1.653-0.097-3.22-0.287-3.22-0.287c-1.652-0.098-1.458-2.581,0.196-2.491c0,0,5.062,0.389,8.079,0.389
			c3.208,0,8.181-0.389,8.181-0.389c1.648-0.09,1.845,2.3,0.191,2.491c0,0-1.659,0.19-3.51,0.287l11.089,32.447l3.062-10.059
			C84.312,69.594,85.098,66.342,85.098,63.759z"/>
	</g>
</g>
</svg>
