<?xml version="1.0" encoding="utf-8"?>
<!-- Generator: Adobe Illustrator 16.0.0, SVG Export Plug-In . SVG Version: 6.00 Build 0)  -->
<!DOCTYPE svg PUBLIC "-//W3C//DTD SVG 1.1//EN" "http://www.w3.org/Graphics/SVG/1.1/DTD/svg11.dtd">
<svg version="1.1" id="Layer_1" xmlns="http://www.w3.org/2000/svg" xmlns:xlink="http://www.w3.org/1999/xlink" x="0px" y="0px"
	 width="130px" height="130px" viewBox="0 0 130 130" enable-background="new 0 0 130 130" xml:space="preserve">
<g>
	<g id="Shape_1_copy_3_33_">
		<ellipse fill="#AB47AC" cx="65" cy="65" rx="64" ry="64.017"/>
	</g>
	<g id="Shape_20">
		<path fill="#FFFFFF" d="M93.988,54.332c0.019-0.007,0.048-0.012,0.065-0.012l2.009-2.899c-0.029,0-0.077-0.007-0.1-0.007
			l0.211-0.315H68.039l1.084,4.429h7.679L63.88,67.189c-2.635-3.644-8.815-11.23-13.126-17.509h9.67v-3.369l0.112-0.742
			c-0.03-0.007-0.081-0.013-0.112-0.013v-0.305H28.349v4.429h9.512c3.691,2.888,17.813,20.52,18.399,22.277
			c0.233,1.645,0.451,11.368-0.24,12.101c-1.389,1.471-7.721,1.077-9.249,1.189l-0.526,3.011c2.788,0.081,11.867-0.229,14.69-0.229
			c5.559,0,15.299-0.022,16.676,0.084l0.171-3.165c-1.406-0.233-9.074-0.028-10.134-0.264c-0.234-1.533-0.493-11.767-0.258-12.821
			c1.06-3.059,17.175-15.505,18.937-15.979c0.398-0.081,0.991-0.211,1.665-0.356h5.19L93.988,54.332z M90.995,80.07l4.312,0.344
			l5.021-19.394c-0.839-0.029-8.458-0.749-9.449-0.943L90.995,80.07z M90.251,83.18l0.023,4.733l2.185,0.187l2.356,0.177
			l0.689-4.634l-2.482-0.123L90.251,83.18z"/>
	</g>
</g>
</svg>
