<?xml version="1.0" encoding="utf-8"?>
<!-- Generator: Adobe Illustrator 16.0.0, SVG Export Plug-In . SVG Version: 6.00 Build 0)  -->
<!DOCTYPE svg PUBLIC "-//W3C//DTD SVG 1.1//EN" "http://www.w3.org/Graphics/SVG/1.1/DTD/svg11.dtd">
<svg version="1.1" id="Layer_1" xmlns="http://www.w3.org/2000/svg" xmlns:xlink="http://www.w3.org/1999/xlink" x="0px" y="0px"
	 width="130px" height="130px" viewBox="0 0 130 130" enable-background="new 0 0 130 130" xml:space="preserve">
<g>
	<g id="Shape_1_copy_3_6_">
		<ellipse fill="#9DBC7A" cx="65" cy="65" rx="64" ry="64.017"/>
	</g>
	<g id="Zerply_icon">
		<path fill="#FFFFFF" d="M87.668,85.44c-12.249,9.259-22.149-7.219-34.259-7.768C57.122,72.249,66,64.173,71.317,57.82
			c7.343-8.769,15.136-14.094,13.115-20.782c-4.938,1.007-24.319,3.519-31.201-1.286c-1.153,2.095-4.803,6.01-3.685,9.993
			c1.633,3.94,12.379,3.078,17.721,2.473C58.765,59.257,50.93,67.854,45.402,73.576c-3.745,3.874-5.117,6.241-4.75,13.04
			c5.945-0.776,11.286-0.243,15.828,1.647c6.522,2.716,10.469,8.506,17.513,10.593C83.644,101.717,89.777,93.314,87.668,85.44z"/>
	</g>
</g>
</svg>
