<?xml version="1.0" encoding="utf-8"?>
<!-- Generator: Adobe Illustrator 16.0.0, SVG Export Plug-In . SVG Version: 6.00 Build 0)  -->
<!DOCTYPE svg PUBLIC "-//W3C//DTD SVG 1.1//EN" "http://www.w3.org/Graphics/SVG/1.1/DTD/svg11.dtd">
<svg version="1.1" id="Layer_1" xmlns="http://www.w3.org/2000/svg" xmlns:xlink="http://www.w3.org/1999/xlink" x="0px" y="0px"
	 width="130px" height="130px" viewBox="0 0 130 130" enable-background="new 0 0 130 130" xml:space="preserve">
<g>
	<g id="Base_icon_copy_10_3_">
		<path fill="#EE3849" d="M125.8,1H4.2C2.433,1,1,2.433,1,4.2v121.6c0,1.768,1.433,3.2,3.2,3.2h121.6c1.768,0,3.2-1.433,3.2-3.2V4.2
			C129,2.433,127.567,1,125.8,1z"/>
	</g>
	<g id="Shape_153">
		<path fill="#FFFFFF" d="M72.258,52.061h-10.65c-2.94,0-5.325,2.381-5.325,5.325c0,2.938,2.385,5.325,5.325,5.325h10.65
			c2.463,0,5.325,4.066,5.325,9.319c0,5.138-4.777,9.319-10.65,9.319h-5.325c-5.872,0-10.65-4.779-10.65-10.65V44.072
			c0-2.944-2.385-5.326-5.325-5.326c-2.941,0-5.326,2.382-5.326,5.326v26.627C40.306,82.442,49.862,92,61.607,92h5.325
			c11.745,0,21.302-8.96,21.302-19.97C88.234,61.016,81.067,52.061,72.258,52.061z"/>
	</g>
</g>
</svg>
