<?xml version="1.0" encoding="utf-8"?>
<!-- Generator: Adobe Illustrator 16.0.0, SVG Export Plug-In . SVG Version: 6.00 Build 0)  -->
<!DOCTYPE svg PUBLIC "-//W3C//DTD SVG 1.1//EN" "http://www.w3.org/Graphics/SVG/1.1/DTD/svg11.dtd">
<svg version="1.1" id="Layer_1" xmlns="http://www.w3.org/2000/svg" xmlns:xlink="http://www.w3.org/1999/xlink" x="0px" y="0px"
	 width="130px" height="130px" viewBox="0 0 130 130" enable-background="new 0 0 130 130" xml:space="preserve">
<g>
	<g id="Base_icon_copy_11_1_">
		<path fill="#1879FD" d="M125.8,1H4.2C2.433,1,1,2.433,1,4.2v121.6c0,1.768,1.433,3.2,3.2,3.2h121.6c1.768,0,3.2-1.433,3.2-3.2V4.2
			C129,2.433,127.567,1,125.8,1z"/>
	</g>
	<g id="Shape_21_copy">
		<path fill="#FFFFFF" d="M59.53,63.881c1.449-0.739,2.545-1.556,3.287-2.457c1.332-1.601,1.995-3.713,1.995-6.351
			c0-2.555-0.654-4.75-1.976-6.585c-2.197-2.987-5.924-4.511-11.18-4.595h-20.85V87.03H50.25c2.188,0,4.22-0.194,6.093-0.583
			c1.872-0.389,3.5-1.107,4.874-2.164c1.221-0.914,2.238-2.048,3.053-3.389c1.285-2.029,1.918-4.324,1.918-6.885
			c0-2.475-0.558-4.582-1.68-6.317C63.395,65.949,61.728,64.684,59.53,63.881z M40.763,51.386h8.035
			c2.064,0,3.767,0.226,5.095,0.673c1.55,0.643,2.32,1.971,2.32,3.979c0,1.815-0.583,3.079-1.75,3.792
			c-1.17,0.713-2.69,1.069-4.562,1.069h-9.138V51.386z M54.257,78.78c-1.045,0.511-2.497,0.759-4.369,0.759h-9.125V68.041h9.268
			c1.85,0.02,3.292,0.26,4.315,0.732c1.829,0.83,2.749,2.379,2.749,4.621C57.095,76.053,56.145,77.842,54.257,78.78z M99.913,66.377
			c-0.378-2.425-1.195-4.55-2.463-6.392c-1.405-2.086-3.185-3.609-5.34-4.575c-2.158-0.965-4.581-1.445-7.271-1.445
			c-4.534,0-8.215,1.426-11.061,4.284c-2.839,2.859-4.259,6.961-4.259,12.32c0,5.717,1.575,9.839,4.719,12.379
			c3.147,2.535,6.773,3.805,10.893,3.805c4.982,0,8.861-1.51,11.63-4.51c1.785-1.893,2.778-3.754,2.993-5.587h-8.25
			c-0.479,0.901-1.034,1.614-1.662,2.118c-1.15,0.954-2.65,1.42-4.488,1.42c-1.74,0-3.231-0.383-4.455-1.16
			c-2.032-1.244-3.107-3.414-3.231-6.521h22.512C100.218,69.836,100.128,67.789,99.913,66.377z M77.862,67.18
			c0.292-2.016,1.008-3.609,2.155-4.782c1.137-1.173,2.744-1.769,4.822-1.769c1.912,0,3.508,0.556,4.792,1.671
			c1.29,1.107,2.009,2.735,2.158,4.88H77.862z M93.465,45.683H76.08v4.316h17.385V45.683z"/>
	</g>
</g>
</svg>
