<?xml version="1.0" encoding="utf-8"?>
<!-- Generator: Adobe Illustrator 16.0.0, SVG Export Plug-In . SVG Version: 6.00 Build 0)  -->
<!DOCTYPE svg PUBLIC "-//W3C//DTD SVG 1.1//EN" "http://www.w3.org/Graphics/SVG/1.1/DTD/svg11.dtd">
<svg version="1.1" id="Layer_1" xmlns="http://www.w3.org/2000/svg" xmlns:xlink="http://www.w3.org/1999/xlink" x="0px" y="0px"
	 width="130px" height="130px" viewBox="0 0 130 130" enable-background="new 0 0 130 130" xml:space="preserve">
<g>
	<g id="Base_icon_copy_10_8_">
		<path fill="#6A8A7B" d="M125.8,1H4.2C2.433,1,1,2.433,1,4.2v121.6c0,1.768,1.433,3.2,3.2,3.2h121.6c1.768,0,3.2-1.433,3.2-3.2V4.2
			C129,2.433,127.567,1,125.8,1z"/>
	</g>
	<g id="Shape_22_copy">
		<path fill="#FFFFFF" d="M73.463,60.445c-3.54-0.654-7.57-0.854-11.858-0.138l8.891,18.072l38.42-11.067
			c0,0-13.935-21.881-55.492-14.808c-0.245,0.037-0.458,0.094-0.7,0.138l-4.033-8.194l-11.96,1.359l4.876,9.973
			C16.388,66.193,27.561,90.748,27.561,90.748l38.477-11.08L55.465,58.208c18.973-5.452,34.818,5.695,34.818,5.695l-13.059,3.529
			L73.463,60.445z M37.971,78.027c0,0-3.706-8.186,7.081-15.199l5.736,11.74L37.971,78.027z"/>
	</g>
</g>
</svg>
