<?xml version="1.0" encoding="utf-8"?>
<!-- Generator: Adobe Illustrator 16.0.0, SVG Export Plug-In . SVG Version: 6.00 Build 0)  -->
<!DOCTYPE svg PUBLIC "-//W3C//DTD SVG 1.1//EN" "http://www.w3.org/Graphics/SVG/1.1/DTD/svg11.dtd">
<svg version="1.1" id="Layer_1" xmlns="http://www.w3.org/2000/svg" xmlns:xlink="http://www.w3.org/1999/xlink" x="0px" y="0px"
	 width="130px" height="130px" viewBox="0 0 130 130" enable-background="new 0 0 130 130" xml:space="preserve">
<g>
	<g id="Base_icon_copy_11_4_">
		<path fill="#75788D" d="M125.8,1H4.2C2.433,1,1,2.433,1,4.2v121.6c0,1.768,1.433,3.2,3.2,3.2h121.6c1.768,0,3.2-1.433,3.2-3.2V4.2
			C129,2.433,127.567,1,125.8,1z"/>
	</g>
	<g id="Digg_icon">
		<path fill="#FFFFFF" d="M39.726,52.772H28.895v23.729h18.053c0,0,0-4.864,0-10.85c0-9.571,0-22.006,0-22.006h-7.222V52.772z
			 M39.726,68.561h-3.61v-8.897h3.61V68.561z M83.192,51.878V75.47H93.94v3.63H83.192v7.26h17.913V51.878H83.192z M93.885,68.561
			h-3.61v-8.897h3.61V68.561z M61.697,75.47h10.748v3.63H61.697v7.26H79.61V51.878H61.697V75.47z M68.61,59.664h3.61v8.897h-3.61
			V59.664z M50.248,76.5h6.555V53.49h-6.555V76.5z M50.248,48.607h6.555v-4.96h-6.555V48.607z"/>
	</g>
</g>
</svg>
