<?xml version="1.0" encoding="utf-8"?>
<!-- Generator: Adobe Illustrator 16.0.0, SVG Export Plug-In . SVG Version: 6.00 Build 0)  -->
<!DOCTYPE svg PUBLIC "-//W3C//DTD SVG 1.1//EN" "http://www.w3.org/Graphics/SVG/1.1/DTD/svg11.dtd">
<svg version="1.1" id="Layer_1" xmlns="http://www.w3.org/2000/svg" xmlns:xlink="http://www.w3.org/1999/xlink" x="0px" y="0px"
	 width="130px" height="130px" viewBox="0 0 130 130" enable-background="new 0 0 130 130" xml:space="preserve">
<g>
	<g id="Base_icon_copy_10">
		<path fill="#CF5C9E" d="M125.8,1H4.2C2.433,1,1,2.433,1,4.2v121.6c0,1.768,1.433,3.2,3.2,3.2h121.6c1.768,0,3.2-1.433,3.2-3.2V4.2
			C129,2.433,127.567,1,125.8,1z"/>
	</g>
	<g id="icon_copy_5">
		<path fill="#FFFFFF" d="M65.982,27.761c-20.442,0-37.074,16.32-37.074,36.763c0,20.443,16.632,37.693,37.074,37.693
			c20.44,0,36.763-17.25,36.763-37.693C102.745,44.082,86.423,27.761,65.982,27.761z M90.803,44.239
			c4.41,5.388,7.08,12.561,7.15,20.035c-1.045-0.221-11.821-2.344-22.358-1.019c-0.223-0.543-0.45-1.088-0.683-1.635
			c-0.657-1.545-1.364-3.079-2.102-4.586C84.52,52.253,90.135,45.141,90.803,44.239z M65.982,32.598
			c8.045,0,15.708,3.018,21.3,7.979c-0.569,0.811-5.646,7.527-16.905,11.748c-5.189-9.535-10.941-17.367-11.816-18.539
			C60.942,33.213,63.427,32.598,65.982,32.598z M52.21,35.606c0.835,1.146,6.803,9.295,12.05,18.623
			c-14.812,3.935-27.859,3.877-29.274,3.857C37.038,48.261,43.351,39.784,52.21,35.606z M34.315,64.572
			c0-0.324,0.007-0.646,0.017-0.966c1.386,0.027,16.73,0.224,32.545-4.507c0.906,1.772,1.772,3.574,2.565,5.374
			c-0.418,0.117-0.833,0.242-1.247,0.376c-16.331,5.28-25.022,19.668-25.738,20.896C37.399,80.131,34.315,72.707,34.315,64.572z
			 M65.982,97.167c-7.32,0-14.069-3.427-19.438-7.612c0.57-1.165,6.98-13.551,24.842-19.775c0.07-0.024,0.139-0.047,0.209-0.07
			c4.446,11.553,6.284,21.235,6.755,24.012C74.55,95.342,70.368,97.167,65.982,97.167z M83.675,90.823
			c-0.325-1.928-2.012-11.196-6.152-22.578c9.923-1.588,18.641,1.011,19.725,1.354C95.835,78.41,90.779,86.02,83.675,90.823z"/>
	</g>
</g>
</svg>
