<?xml version="1.0" encoding="utf-8"?>
<!-- Generator: Adobe Illustrator 16.0.0, SVG Export Plug-In . SVG Version: 6.00 Build 0)  -->
<!DOCTYPE svg PUBLIC "-//W3C//DTD SVG 1.1//EN" "http://www.w3.org/Graphics/SVG/1.1/DTD/svg11.dtd">
<svg version="1.1" id="Layer_1" xmlns="http://www.w3.org/2000/svg" xmlns:xlink="http://www.w3.org/1999/xlink" x="0px" y="0px"
	 width="130px" height="130px" viewBox="0 0 130 130" enable-background="new 0 0 130 130" xml:space="preserve">
<g>
	<g id="Base_icon_copy_12_9_">
		<path fill="#45AD76" d="M125.8,1H4.2C2.433,1,1,2.433,1,4.2v121.6c0,1.768,1.433,3.2,3.2,3.2h121.6c1.768,0,3.2-1.433,3.2-3.2V4.2
			C129,2.433,127.567,1,125.8,1z"/>
	</g>
	<g id="Forrst_icon">
		<polygon fill="#FFFFFF" points="65.835,27.112 35.115,97.992 61.685,97.992 61.685,83.843 52.91,78.686 54.57,75.76 
			61.685,79.941 61.685,67.568 69.987,67.568 69.987,74.881 74.843,72.027 76.505,74.955 69.987,78.785 69.987,83.809 79.905,77.98 
			81.565,80.908 69.987,87.713 69.987,97.992 96.556,97.992 		"/>
	</g>
</g>
</svg>
