<?xml version="1.0" encoding="utf-8"?>
<!-- Generator: Adobe Illustrator 16.0.0, SVG Export Plug-In . SVG Version: 6.00 Build 0)  -->
<!DOCTYPE svg PUBLIC "-//W3C//DTD SVG 1.1//EN" "http://www.w3.org/Graphics/SVG/1.1/DTD/svg11.dtd">
<svg version="1.1" id="Layer_1" xmlns="http://www.w3.org/2000/svg" xmlns:xlink="http://www.w3.org/1999/xlink" x="0px" y="0px"
	 width="130px" height="130px" viewBox="0 0 130 130" enable-background="new 0 0 130 130" xml:space="preserve">
<g>
	<g id="Base_icon_copy_6">
		<path fill="#0481D9" d="M125.8,1H4.2C2.433,1,1,2.433,1,4.2v121.6c0,1.768,1.433,3.2,3.2,3.2h121.6c1.768,0,3.2-1.433,3.2-3.2V4.2
			C129,2.433,127.567,1,125.8,1z"/>
	</g>
	<g id="Shape_6_copy">
		<path fill="#FFFFFF" d="M83.149,48.29h8.03v-9.374h-8.03c-7.044,0-12.772,6.381-12.772,14.228v4.742h-4.742h-4.744h-4.741v-4.742
			c0-2.798,1.732-4.854,3.288-4.854h8.03v-9.374h-8.03c-7.043,0-12.774,6.381-12.774,14.228v4.742H37.18v9.481h9.483v23.716h9.486
			V67.367h4.741h4.744h4.742v23.716h9.483V67.367h9.485v-9.481H79.86v-4.742C79.86,50.346,81.593,48.29,83.149,48.29z"/>
	</g>
</g>
</svg>
