<?xml version="1.0" encoding="utf-8"?>
<!-- Generator: Adobe Illustrator 16.0.0, SVG Export Plug-In . SVG Version: 6.00 Build 0)  -->
<!DOCTYPE svg PUBLIC "-//W3C//DTD SVG 1.1//EN" "http://www.w3.org/Graphics/SVG/1.1/DTD/svg11.dtd">
<svg version="1.1" id="Layer_1" xmlns="http://www.w3.org/2000/svg" xmlns:xlink="http://www.w3.org/1999/xlink" x="0px" y="0px"
	 width="130px" height="130px" viewBox="0 0 130 130" enable-background="new 0 0 130 130" xml:space="preserve">
<g>
	<g id="Base_icon_copy_12_5_">
		<path fill="#FA7100" d="M125.8,1H4.2C2.433,1,1,2.433,1,4.2v121.6c0,1.768,1.433,3.2,3.2,3.2h121.6c1.768,0,3.2-1.433,3.2-3.2V4.2
			C129,2.433,127.567,1,125.8,1z"/>
	</g>
	<g id="Grooveshark_icon">
		<path fill="#FFFFFF" d="M64.795,27.048c-20.593,0-37.287,16.694-37.287,37.287c0,20.595,16.694,37.288,37.287,37.288
			s37.287-16.693,37.287-37.288C102.082,43.742,85.388,27.048,64.795,27.048z M64.795,34.115c16.59,0,30.045,13.359,30.205,29.896
			c-0.007,0.104-0.02,0.195-0.02,0.324c0,5.327-3.487,8.878-7.038,8.878c-7.167,0-5.183-8.184-14.21-17.209
			c-11.91-11.912-21.367-11.199-21.367-11.199c3.718,15.814-3.551,28.408-10.653,28.408c-5.327,0-7.102-5.271-7.102-8.878
			l-0.037-0.019c0-0.003,0-0.005,0-0.008C34.573,47.633,48.104,34.115,64.795,34.115z"/>
	</g>
</g>
</svg>
