<?xml version="1.0" encoding="utf-8"?>
<!-- Generator: Adobe Illustrator 16.0.0, SVG Export Plug-In . SVG Version: 6.00 Build 0)  -->
<!DOCTYPE svg PUBLIC "-//W3C//DTD SVG 1.1//EN" "http://www.w3.org/Graphics/SVG/1.1/DTD/svg11.dtd">
<svg version="1.1" id="Layer_1" xmlns="http://www.w3.org/2000/svg" xmlns:xlink="http://www.w3.org/1999/xlink" x="0px" y="0px"
	 width="130px" height="130px" viewBox="0 0 130 130" enable-background="new 0 0 130 130" xml:space="preserve">
<g>
	<g id="Base_icon_copy_2">
		<path fill="#25A774" d="M125.8,1H4.2C2.433,1,1,2.433,1,4.2v121.6c0,1.768,1.433,3.2,3.2,3.2h121.6c1.768,0,3.2-1.433,3.2-3.2V4.2
			C129,2.433,127.567,1,125.8,1z"/>
	</g>
	<g id="Shape_167">
		<path fill="#FFFFFF" d="M92.588,75.104c7.89-1.62,5.152-8.555,2.615-9.683c-2.018-0.898-4.355-0.826-2.75-1.467
			c1.247-0.497,4.034-1.327,4.034-4.343c0-1.37-0.44-2.245-1.029-2.801c-1.123-1.061-2.825-1.143-3.219-1.143c0,0-7.634,0-11.135,0
			c-0.688,0-1.739-0.567-1.862-1.244c-0.395-2.165-0.803-4.671,1.265-8.784c0.751-1.497,0.791-4.918-0.187-8.622
			c-0.798-3.027-2.255-6.147-4.461-8.417c-0.435-0.336-3.433-2.473-5.542,0.841v8.881c0,0.079-0.007,0.156-0.022,0.229
			c-0.065,0.605-0.43,3.501-1.555,5.473c-0.688,1.204-3.817,6.261-6.57,10.49c-1.763,2.707-3.382,5.082-4.135,5.917
			c-1.492,1.651-4.195,1.846-5.86,1.789v31.19l-0.127,0.05c0.513-0.256,3.647,2.814,11.405,2.925
			c10.526,0.149,17.359-1.266,23.055-2.43c0.957-0.197,2.853-0.958,3.815-1.673c0.642-0.471,1.409-1.067,1.809-1.76
			c0.381-0.655,0.611-1.403,0.611-2.21c0-3.562-2.556-3.3-2.394-4.025c0.118-0.533,0.456-0.5,0.965-0.697
			c5.978-2.325,3.211-7.2,1.483-7.635C91.76,75.695,91.89,75.248,92.588,75.104z"/>
	</g>
	<g id="Shape_166">
		<path fill="#FF7E30" d="M52.218,57.237c-3.85,0-14.713,0-14.713,0s-5.655-0.603-5.293,5.532c0.36,6.133,2.045,30.069,2.045,30.069
			s0,6.255,6.253,6.255c6.256,0,12.308,0,12.308,0s2.287,0.12,2.287-2.886c0-3.009,0-2.888,0-2.888V61.205
			C55.104,61.205,56.064,57.237,52.218,57.237z"/>
	</g>
</g>
</svg>
