<?xml version="1.0" encoding="utf-8"?>
<!-- Generator: Adobe Illustrator 16.0.0, SVG Export Plug-In . SVG Version: 6.00 Build 0)  -->
<!DOCTYPE svg PUBLIC "-//W3C//DTD SVG 1.1//EN" "http://www.w3.org/Graphics/SVG/1.1/DTD/svg11.dtd">
<svg version="1.1" id="Layer_1" xmlns="http://www.w3.org/2000/svg" xmlns:xlink="http://www.w3.org/1999/xlink" x="0px" y="0px"
	 width="130px" height="130px" viewBox="0 0 130 130" enable-background="new 0 0 130 130" xml:space="preserve">
<g>
	<g id="Base_icon_copy">
		<path fill="#EE3849" d="M125.8,1H4.2C2.433,1,1,2.433,1,4.2v121.6c0,1.768,1.433,3.2,3.2,3.2h121.6c1.768,0,3.2-1.433,3.2-3.2V4.2
			C129,2.433,127.567,1,125.8,1z"/>
	</g>
	<g id="Shape_12_copy">
		<path fill="#FFFFFF" d="M89.982,61.046c-5.542-1.819-9.507-2.489-9.507-6.918c0-3.124,2.409-5.471,5.784-5.471
			c2.426,0,4.336,0.958,6.067,3.381l4.596-2.348c-2.341-4.154-5.723-6.239-10.405-6.239c-7.189,0-11.613,4.338-11.613,10.839
			c0,6.667,4.339,9.449,12.746,12.218c4.677,1.557,7.447,2.513,7.447,6.49c0,4.074-3.633,7.295-8.926,7.113
			c-5.389-0.182-7.049-3.128-8.997-7.57c-3.146-7.178-6.752-15.61-7.03-16.267c-3.674-8.475-10.904-13.257-19.859-13.257
			c-11.865,0-21.483,9.624-21.483,21.491c0,11.871,9.618,21.484,21.483,21.484c6.695,0,12.68-3.059,16.617-7.857l-2.772-6.398
			c-2.609,4.982-7.835,8.381-13.845,8.381c-8.615,0-15.604-6.989-15.604-15.609c0-8.622,6.989-15.611,15.604-15.611
			c6.367,0,12.01,3.737,14.284,9.271l6.857,15.635l0.794,1.766c2.782,6.475,6.786,10.147,14.297,10.176
			c8.152,0.012,14.396-5.286,14.396-12.563C100.913,66.252,97.445,63.476,89.982,61.046z"/>
	</g>
</g>
</svg>
