<?xml version="1.0" encoding="utf-8"?>
<!-- Generator: Adobe Illustrator 16.0.0, SVG Export Plug-In . SVG Version: 6.00 Build 0)  -->
<!DOCTYPE svg PUBLIC "-//W3C//DTD SVG 1.1//EN" "http://www.w3.org/Graphics/SVG/1.1/DTD/svg11.dtd">
<svg version="1.1" id="Layer_1" xmlns="http://www.w3.org/2000/svg" xmlns:xlink="http://www.w3.org/1999/xlink" x="0px" y="0px"
	 width="130px" height="130px" viewBox="0 0 130 130" enable-background="new 0 0 130 130" xml:space="preserve">
<g>
	<g id="Base_icon_copy_11_5_">
		<path fill="#008DDE" d="M125.8,1H4.2C2.433,1,1,2.433,1,4.2v121.6c0,1.768,1.433,3.2,3.2,3.2h121.6c1.768,0,3.2-1.433,3.2-3.2V4.2
			C129,2.433,127.567,1,125.8,1z"/>
	</g>
	<g id="Myspace_icon">
		<path fill="#FFFFFF" d="M38.593,49.359c-5.348,0-9.685,4.314-9.685,9.638c0,5.322,4.337,9.638,9.685,9.638
			c5.35,0,9.687-4.316,9.687-9.638C48.279,53.673,43.942,49.359,38.593,49.359z M38.593,72.21c-5.348,0-9.685,4.313-9.685,9.638
			c0,1.272,0,2.792,0,4.363h19.362c0.005-1.953,0.009-3.619,0.009-4.363C48.279,76.523,43.942,72.21,38.593,72.21z M90.43,65.119
			c6.795,0,12.303-5.507,12.303-12.3c0-6.793-5.508-12.3-12.303-12.3c-6.797,0-12.305,5.507-12.305,12.3
			C78.125,59.612,83.633,65.119,90.43,65.119z M90.43,68.643c-6.797,0-12.305,5.506-12.305,12.3c0,0.888,0,2.938,0,5.269h24.607
			c0-1.778,0-3.591,0-5.269C102.732,74.148,97.225,68.643,90.43,68.643z M63.199,44.099c-6.319,0-11.441,5.111-11.441,11.414
			c0,6.303,5.122,11.412,11.441,11.412c6.316,0,11.438-5.109,11.438-11.412C74.638,49.21,69.516,44.099,63.199,44.099z
			 M63.199,70.467c-6.319,0-11.441,5.108-11.441,11.412c0,1.373,0,2.855,0,4.332h22.874c0.005-1.894,0.006-3.529,0.006-4.332
			C74.638,75.575,69.516,70.467,63.199,70.467z"/>
	</g>
</g>
</svg>
