<?xml version="1.0" encoding="utf-8"?>
<!-- Generator: Adobe Illustrator 16.0.0, SVG Export Plug-In . SVG Version: 6.00 Build 0)  -->
<!DOCTYPE svg PUBLIC "-//W3C//DTD SVG 1.1//EN" "http://www.w3.org/Graphics/SVG/1.1/DTD/svg11.dtd">
<svg version="1.1" id="Layer_1" xmlns="http://www.w3.org/2000/svg" xmlns:xlink="http://www.w3.org/1999/xlink" x="0px" y="0px"
	 width="130px" height="130px" viewBox="0 0 130 130" enable-background="new 0 0 130 130" xml:space="preserve">
<g>
	<g id="Base_icon_copy_5">
		<path fill="#67AF3E" d="M125.8,1H4.2C2.433,1,1,2.433,1,4.2v121.6c0,1.768,1.433,3.2,3.2,3.2h121.6c1.768,0,3.2-1.433,3.2-3.2V4.2
			C129,2.433,127.567,1,125.8,1z"/>
	</g>
	<g id="Shape_15_copy">
		<path fill="#FFFFFF" d="M75.854,70.262c0.785,0.496,1.708,0.788,2.706,0.788c2.804,0,5.077-2.274,5.077-5.085
			c0-2.805-2.273-5.08-5.077-5.08c-2.808,0-5.083,2.275-5.083,5.08c0,0.211,0.016,0.418,0.038,0.628l-6.256,4.532v-14.14
			l8.658-6.274c0.776,0.47,1.674,0.747,2.643,0.747c2.804,0,5.077-2.276,5.077-5.08c0-2.806-2.273-5.087-5.077-5.087
			c-2.808,0-5.083,2.281-5.083,5.087c0,0.235,0.02,0.473,0.055,0.7l-6.272,4.545V30.165h-4.947v11.327l-6.306-4.564
			c0.056-0.304,0.089-0.615,0.089-0.938c0-2.806-2.28-5.08-5.085-5.08c-2.804,0-5.076,2.274-5.076,5.08
			c0,2.805,2.272,5.082,5.076,5.082c0.887,0,1.72-0.229,2.446-0.625l8.855,6.409v14.139l-6.297-4.558
			c0.05-0.276,0.08-0.564,0.08-0.853c0-2.814-2.28-5.086-5.085-5.086c-2.804,0-5.076,2.272-5.076,5.086
			c0,2.803,2.272,5.077,5.076,5.077c0.916,0,1.771-0.243,2.51-0.663l8.792,6.362v15.077l-6.292-4.555
			c0.045-0.273,0.075-0.551,0.075-0.835c0-2.806-2.28-5.083-5.085-5.083c-2.804,0-5.076,2.277-5.076,5.083
			c0,2.805,2.272,5.081,5.076,5.081c0.924,0,1.784-0.252,2.529-0.679l8.772,6.35v15.104h0.407h4.346h0.194v-4.978l8.578-6.207
			c0.787,0.497,1.717,0.793,2.723,0.793c2.804,0,5.077-2.273,5.077-5.081c0-2.807-2.273-5.079-5.077-5.079
			c-2.808,0-5.083,2.272-5.083,5.079c0,0.206,0.016,0.404,0.037,0.604l-6.255,4.532V76.49L75.854,70.262z"/>
	</g>
</g>
</svg>
