<?xml version="1.0" encoding="utf-8"?>
<!-- Generator: Adobe Illustrator 16.0.0, SVG Export Plug-In . SVG Version: 6.00 Build 0)  -->
<!DOCTYPE svg PUBLIC "-//W3C//DTD SVG 1.1//EN" "http://www.w3.org/Graphics/SVG/1.1/DTD/svg11.dtd">
<svg version="1.1" id="Layer_1" xmlns="http://www.w3.org/2000/svg" xmlns:xlink="http://www.w3.org/1999/xlink" x="0px" y="0px"
	 width="130px" height="130px" viewBox="0 0 130 130" enable-background="new 0 0 130 130" xml:space="preserve">
<g>
	<g id="Base_icon_copy_11">
		<path fill="#F1F2F2" d="M125.8,1H4.2C2.433,1,1,2.433,1,4.2v121.6c0,1.768,1.433,3.2,3.2,3.2h121.6c1.768,0,3.2-1.433,3.2-3.2V4.2
			C129,2.433,127.567,1,125.8,1z"/>
	</g>
	<g id="Shape_156">
		<path fill="#2B68AD" d="M28.525,80.807c3.222,8.096,9.102,14.963,16.606,19.516V65.673C43.788,66.897,28.989,80.381,28.525,80.807
			z"/>
	</g>
	<g id="Shape_160">
		<path fill="#129346" d="M49.354,83.416v19.229c4.085,1.84,8.363,2.974,12.76,3.385h7.37c13.886-1.297,26.277-9.877,32.438-22.613
			H49.354z"/>
	</g>
	<g id="Shape_159">
		<path fill="#F48B35" d="M86.628,31.534v47.641h17.103c1.494-4.298,2.281-8.755,2.281-13.267
			C106.012,51.904,98.585,38.832,86.628,31.534z"/>
	</g>
	<g id="Shape_158">
		<path fill="#EE4156" d="M65.817,25.612c-4.792,0-9.5,0.928-14.032,2.63c1.064,0.966,29.234,26.601,30.605,27.851V29.224
			C77.145,26.838,71.574,25.612,65.817,25.612z"/>
	</g>
	<g id="Shape_157">
		<path fill="#8A5A9F" d="M47.505,30.08C34.011,37.026,25.63,50.715,25.63,65.908c0,3.457,0.52,6.975,1.463,10.467
			c1.085-0.994,34.923-31.816,35.62-32.454C62.037,43.303,47.963,30.5,47.505,30.08z"/>
	</g>
</g>
</svg>
