<?xml version="1.0" encoding="utf-8"?>
<!-- Generator: Adobe Illustrator 16.0.0, SVG Export Plug-In . SVG Version: 6.00 Build 0)  -->
<!DOCTYPE svg PUBLIC "-//W3C//DTD SVG 1.1//EN" "http://www.w3.org/Graphics/SVG/1.1/DTD/svg11.dtd">
<svg version="1.1" id="Layer_1" xmlns="http://www.w3.org/2000/svg" xmlns:xlink="http://www.w3.org/1999/xlink" x="0px" y="0px"
	 width="130px" height="130px" viewBox="0 0 130 130" enable-background="new 0 0 130 130" xml:space="preserve">
<g>
	<g id="Base_icon_copy_10_6_">
		<path fill="#E13138" d="M125.8,1H4.2C2.433,1,1,2.433,1,4.2v121.6c0,1.768,1.433,3.2,3.2,3.2h121.6c1.768,0,3.2-1.433,3.2-3.2V4.2
			C129,2.433,127.567,1,125.8,1z"/>
	</g>
	<g id="Pinterest_Icon">
		<path fill="#FFFFFF" d="M65.717,35.086c-17.925,0-26.96,12.664-26.96,23.22c0,6.399,2.453,12.086,7.724,14.206
			c0.862,0.348,1.64,0.014,1.888-0.934c0.177-0.646,0.97-2.299,1.154-2.979c0.253-0.932,0.157-1.264-0.542-2.077
			c-1.518-1.761-2.46-3.603-2.46-6.843c0-10.76,6.719-18.441,18.157-18.441c10.13,0,15.697,6.292,15.697,14.436
			c0,10.722-4.814,19.431-11.962,19.431c-3.946,0-6.897-2.879-5.951-6.822c1.134-4.708,3.326-9.796,3.326-13.193
			c0-3.042-1.65-5.241-5.081-5.241c-4.037,0-7.28,3.771-7.28,9.286c0,3.508,1.163,5.253,1.163,5.253s-4.085,17.864-4.811,20.882
			c-1.442,6.013-0.217,13.383-0.112,14.126c0.061,0.442,0.638,0.545,0.898,0.214c0.369-0.474,5.175-6.321,6.81-12.167
			c0.462-1.651,2.654-10.215,2.654-10.215c1.311,2.464,5.143,4.053,9.214,4.053c12.125,0,20.354-10.319,20.354-24.894
			C89.598,45.357,80.118,35.086,65.717,35.086z"/>
	</g>
</g>
</svg>
