<?xml version="1.0" encoding="utf-8"?>
<!-- Generator: Adobe Illustrator 16.0.0, SVG Export Plug-In . SVG Version: 6.00 Build 0)  -->
<!DOCTYPE svg PUBLIC "-//W3C//DTD SVG 1.1//EN" "http://www.w3.org/Graphics/SVG/1.1/DTD/svg11.dtd">
<svg version="1.1" id="Layer_1" xmlns="http://www.w3.org/2000/svg" xmlns:xlink="http://www.w3.org/1999/xlink" x="0px" y="0px"
	 width="130px" height="130px" viewBox="0 0 130 130" enable-background="new 0 0 130 130" xml:space="preserve">
<g>
	<g id="Base_icon_copy_12_4_">
		<path fill="#EA3123" d="M125.8,1H4.2C2.433,1,1,2.433,1,4.2v121.6c0,1.768,1.433,3.2,3.2,3.2h121.6c1.768,0,3.2-1.433,3.2-3.2V4.2
			C129,2.433,127.567,1,125.8,1z"/>
	</g>
	<g id="Quora_icon">
		<path fill="#FFFFFF" d="M80.857,89.86c8.555-5.436,14.306-15.155,14.306-26.245c0-17.035-13.5-30.848-30.089-30.848
			S35.038,46.58,35.038,63.615c0,17.039,13.447,30.188,30.036,30.188c2.441,0,4.884,0,7.081-0.21
			c2.852,5.257,7.272,8.977,16.492,7.197v-5.229C88.647,95.561,82.657,94.056,80.857,89.86z M80.495,67.695
			c0,5.149-1.466,9.824-4.093,13.277c-3.302-3.559-8.02-6.234-14.585-5.86v5.81c0,0,3.997,0.18,7.045,5.488
			c-1.34,0-2.55,0.084-3.775,0.084c-8.475,0-15.429-8.172-15.429-18.799c0-1.363,0-6.585,0-7.949
			c0-10.626,7.174-19.544,15.646-19.544c8.475,0,15.19,8.918,15.19,19.544C80.495,61.11,80.495,66.332,80.495,67.695z"/>
	</g>
</g>
</svg>
