<?xml version="1.0" encoding="utf-8"?>
<!-- Generator: Adobe Illustrator 16.0.0, SVG Export Plug-In . SVG Version: 6.00 Build 0)  -->
<!DOCTYPE svg PUBLIC "-//W3C//DTD SVG 1.1//EN" "http://www.w3.org/Graphics/SVG/1.1/DTD/svg11.dtd">
<svg version="1.1" id="Layer_1" xmlns="http://www.w3.org/2000/svg" xmlns:xlink="http://www.w3.org/1999/xlink" x="0px" y="0px"
	 width="130px" height="130px" viewBox="0 0 130 130" enable-background="new 0 0 130 130" xml:space="preserve">
<g>
	<g id="Base_icon_copy_10_2_">
		<path fill="#FF8E2E" d="M125.8,1H4.2C2.433,1,1,2.433,1,4.2v121.6c0,1.768,1.433,3.2,3.2,3.2h121.6c1.768,0,3.2-1.433,3.2-3.2V4.2
			C129,2.433,127.567,1,125.8,1z"/>
	</g>
	<g id="Shape_147">
		<path fill="#FFFFFF" d="M75.095,58.513c-14.24-17.176-41.437-19.034-41.437-19.034c-1.818,0-3.299,1.274-3.299,3.101v5.777
			c0,1.827,1.48,3.093,3.299,3.093c0,0,19.435,0.627,30.394,13.577C79.074,80.48,77.935,95.93,77.935,95.93
			c0,1.823,1.474,3.301,3.305,3.301h6.396c1.827,0,2.895-1.478,2.895-3.301C90.529,95.93,89.177,71.629,75.095,58.513z
			 M38.922,82.93c-4.518,0-8.183,3.668-8.183,8.183c0,4.528,3.665,8.19,8.183,8.19c4.522,0,8.19-3.662,8.19-8.19
			C47.112,86.598,43.447,82.93,38.922,82.93z M58.893,70.002c-9.051-8.499-25.234-10.494-25.234-10.494
			c-1.818,0-3.299,1.266-3.299,3.09v5.781c0,1.821,1.48,3.092,3.299,3.1c0,0,10.402,0.273,16.647,6.064
			c8.246,7.646,8.022,18.252,8.022,18.252c0,1.827,0.861,3.31,2.687,3.31h6.396c1.822,0,2.268-1.482,2.268-3.31
			C69.678,95.795,68.154,78.68,58.893,70.002z"/>
	</g>
</g>
</svg>
