<?xml version="1.0" encoding="utf-8"?>
<!-- Generator: Adobe Illustrator 16.0.0, SVG Export Plug-In . SVG Version: 6.00 Build 0)  -->
<!DOCTYPE svg PUBLIC "-//W3C//DTD SVG 1.1//EN" "http://www.w3.org/Graphics/SVG/1.1/DTD/svg11.dtd">
<svg version="1.1" id="Layer_1" xmlns="http://www.w3.org/2000/svg" xmlns:xlink="http://www.w3.org/1999/xlink" x="0px" y="0px"
	 width="130px" height="130px" viewBox="0 0 130 130" enable-background="new 0 0 130 130" xml:space="preserve">
<g>
	<g id="Base_icon_copy_12_8_">
		<path fill="#25A774" d="M125.8,1H4.2C2.433,1,1,2.433,1,4.2v121.6c0,1.768,1.433,3.2,3.2,3.2h121.6c1.768,0,3.2-1.433,3.2-3.2V4.2
			C129,2.433,127.567,1,125.8,1z"/>
	</g>
	<g id="ShareThis_icon">
		<path fill="#FFFFFF" d="M82.31,73.405c-2.667,0-5.075,1.02-6.937,2.647L54.725,65.814c0.07-0.49,0.148-0.978,0.15-1.487
			L75.462,53.97c1.849,1.58,4.221,2.569,6.848,2.569c5.843,0,10.578-4.72,10.578-10.542c0-5.822-4.735-10.543-10.578-10.543
			c-5.842,0-10.579,4.721-10.579,10.543c0,0.213,0.052,0.414,0.064,0.625L51.62,56.72c-1.893-1.817-4.448-2.949-7.278-2.949
			c-5.819,0-10.536,4.719-10.536,10.543c0,5.823,4.717,10.542,10.536,10.542c2.335,0,4.473-0.787,6.219-2.073l21.225,10.661
			c-0.01,0.178-0.055,0.347-0.055,0.526c0,5.835,4.737,10.563,10.579,10.563c5.843,0,10.578-4.729,10.578-10.563
			C92.888,78.137,88.152,73.405,82.31,73.405z"/>
	</g>
</g>
</svg>
