<?xml version="1.0" encoding="utf-8"?>
<!-- Generator: Adobe Illustrator 16.0.0, SVG Export Plug-In . SVG Version: 6.00 Build 0)  -->
<!DOCTYPE svg PUBLIC "-//W3C//DTD SVG 1.1//EN" "http://www.w3.org/Graphics/SVG/1.1/DTD/svg11.dtd">
<svg version="1.1" id="Layer_1" xmlns="http://www.w3.org/2000/svg" xmlns:xlink="http://www.w3.org/1999/xlink" x="0px" y="0px"
	 width="130px" height="130px" viewBox="0 0 130 130" enable-background="new 0 0 130 130" xml:space="preserve">
<g>
	<g id="Base_icon_copy_8">
		<path fill="#FF7E30" d="M125.8,1H4.2C2.433,1,1,2.433,1,4.2v121.6c0,1.768,1.433,3.2,3.2,3.2h121.6c1.768,0,3.2-1.433,3.2-3.2V4.2
			C129,2.433,127.567,1,125.8,1z"/>
	</g>
	<g id="SoundCloud_icon">
		<path fill="#FFFFFF" d="M40.29,51.546c-0.636,0-1.152,0.351-1.176,0.798l-0.859,19.038l0.859,9.281
			c0.023,0.441,0.54,0.793,1.176,0.793c0.632,0,1.147-0.35,1.173-0.797l0.97-9.277l-0.97-19.038
			C41.438,51.897,40.922,51.546,40.29,51.546z M32.232,56.54c-0.53,0-0.967,0.284-0.993,0.646L30.21,71.423l1.029,9.394
			c0.026,0.356,0.463,0.643,0.993,0.643c0.527,0,0.96-0.281,0.995-0.643l1.16-9.394l-1.16-14.237
			C33.192,56.824,32.76,56.54,32.232,56.54z M24.359,65.471c-0.425,0-0.77,0.135-0.802,0.312l-1.205,5.903l1.205,5.713
			c0.032,0.179,0.377,0.312,0.802,0.312c0.42,0,0.764-0.133,0.801-0.312l1.369-5.713L25.16,65.78
			C25.123,65.605,24.779,65.471,24.359,65.471z M48.283,51.548c-0.733,0-1.321,0.411-1.339,0.936L46.237,71.48l0.71,9.052
			c0.015,0.521,0.603,0.933,1.336,0.933c0.729,0,1.317-0.406,1.337-0.932l0.795-9.053L49.62,52.484
			C49.601,51.958,49.013,51.548,48.283,51.548z M93.897,60.505c-1.475,0-2.882,0.353-4.165,0.872
			c-0.855-9.383-9.68-17.803-19.605-17.803c-2.428,0-4.799,0.461-6.888,1.244c-0.814,0.304-1.031,0.617-1.037,1.224v34.169
			c0.008,0.639,0.519,1.17,1.162,1.231c0.026,0.001,26.724-0.045,30.533-0.045c6.147,0,12.122-3.962,12.122-10.478
			C106.02,63.495,99.846,60.505,93.897,60.505z M56.15,48.562c-0.811,0-1.479,0.489-1.492,1.086l-0.563,21.81
			c0,0.014,0.563,8.959,0.563,8.959c0.014,0.594,0.682,1.08,1.492,1.08c0.812,0,1.481-0.48,1.494-1.08l0.628-8.951l-0.628-21.818
			C57.632,49.05,56.962,48.562,56.15,48.562z"/>
	</g>
</g>
</svg>
