<?xml version="1.0" encoding="utf-8"?>
<!-- Generator: Adobe Illustrator 16.0.0, SVG Export Plug-In . SVG Version: 6.00 Build 0)  -->
<!DOCTYPE svg PUBLIC "-//W3C//DTD SVG 1.1//EN" "http://www.w3.org/Graphics/SVG/1.1/DTD/svg11.dtd">
<svg version="1.1" id="Layer_1" xmlns="http://www.w3.org/2000/svg" xmlns:xlink="http://www.w3.org/1999/xlink" x="0px" y="0px"
	 width="130px" height="130px" viewBox="0 0 130 130" enable-background="new 0 0 130 130" xml:space="preserve">
<g>
	<g id="Base_icon_copy_11_3_">
		<path fill="#FF5C30" d="M125.8,1H4.2C2.433,1,1,2.433,1,4.2v121.6c0,1.768,1.433,3.2,3.2,3.2h121.6c1.768,0,3.2-1.433,3.2-3.2V4.2
			C129,2.433,127.567,1,125.8,1z"/>
	</g>
	<g id="Shape_161">
		<path fill="#FFFFFF" d="M69.433,57.941l4.73,2.205l7.055-2.106v-4.894c-0.25-8.332-7.06-15.013-15.45-15.013
			c-8.362,0-15.153,6.632-15.452,14.922v22.361c0,2.025-1.641,3.666-3.665,3.666c-2.023,0-3.665-1.641-3.665-3.666v-9.477h-11.85
			c0,0,0,9.492,0,9.604c0,8.552,6.934,15.482,15.482,15.482c8.477,0,15.347-6.812,15.467-15.26l0.018-22.088
			c0-2.024,1.641-3.665,3.665-3.665s3.665,1.641,3.665,3.665V57.941z M88.548,65.939v9.92c0,2.023-1.641,3.664-3.665,3.664
			c-2.023,0-3.665-1.641-3.665-3.664v-9.73l-7.055,2.105l-4.73-2.204v9.651c0.074,8.484,6.978,15.344,15.482,15.344
			c8.552,0,15.482-6.931,15.482-15.482c0-0.111,0-9.604,0-9.604H88.548z"/>
	</g>
</g>
</svg>
