<?xml version="1.0" encoding="utf-8"?>
<!-- Generator: Adobe Illustrator 16.0.0, SVG Export Plug-In . SVG Version: 6.00 Build 0)  -->
<!DOCTYPE svg PUBLIC "-//W3C//DTD SVG 1.1//EN" "http://www.w3.org/Graphics/SVG/1.1/DTD/svg11.dtd">
<svg version="1.1" id="Layer_1" xmlns="http://www.w3.org/2000/svg" xmlns:xlink="http://www.w3.org/1999/xlink" x="0px" y="0px"
	 width="130px" height="130px" viewBox="0 0 130 130" enable-background="new 0 0 130 130" xml:space="preserve">
<g>
	<g id="Base_icon_copy_10_4_">
		<path fill="#426D9B" d="M125.8,1H4.2C2.433,1,1,2.433,1,4.2v121.6c0,1.768,1.433,3.2,3.2,3.2h121.6c1.768,0,3.2-1.433,3.2-3.2V4.2
			C129,2.433,127.567,1,125.8,1z"/>
	</g>
	<g id="Shape_155">
		<path fill="#FFFFFF" d="M72.905,83.061c-1.525,0-2.878-0.355-4.063-1.065c-0.895-0.525-1.714-1.437-2.04-2.312
			c-0.331-0.882-0.29-2.671-0.29-5.78V60.167h12.386v-9.561H66.512v-12.39h-7.619c-0.341,2.763-0.966,5.042-1.875,6.827
			c-0.908,1.792-2.11,3.322-3.615,4.601c-1.498,1.274-3.938,2.255-6.042,2.938v7.585h7.277v18.787c0,2.449,0.257,4.32,0.771,5.609
			c0.515,1.29,1.434,2.506,2.765,3.654c1.327,1.136,2.933,2.022,4.814,2.644c1.881,0.615,3.325,0.923,5.775,0.923
			c2.155,0,4.162-0.218,6.02-0.648c1.854-0.437,3.93-1.194,6.216-2.27v-8.449C78.315,82.18,75.618,83.061,72.905,83.061z"/>
	</g>
</g>
</svg>
