<?xml version="1.0" encoding="utf-8"?>
<!-- Generator: Adobe Illustrator 16.0.0, SVG Export Plug-In . SVG Version: 6.00 Build 0)  -->
<!DOCTYPE svg PUBLIC "-//W3C//DTD SVG 1.1//EN" "http://www.w3.org/Graphics/SVG/1.1/DTD/svg11.dtd">
<svg version="1.1" id="Layer_1" xmlns="http://www.w3.org/2000/svg" xmlns:xlink="http://www.w3.org/1999/xlink" x="0px" y="0px"
	 width="130px" height="130px" viewBox="0 0 130 130" enable-background="new 0 0 130 130" xml:space="preserve">
<g>
	<g id="Base_icon_copy_10_1_">
		<path fill="#00ACF0" d="M125.8,1H4.2C2.433,1,1,2.433,1,4.2v121.6c0,1.768,1.433,3.2,3.2,3.2h121.6c1.768,0,3.2-1.433,3.2-3.2V4.2
			C129,2.433,127.567,1,125.8,1z"/>
	</g>
	<g id="T_-_White_copy_3">
		<path fill="#FFFFFF" d="M78.158,78.718H59.625c-0.774,0-1.02-0.472-1.02-1.303V67.07h19.553c3.946,0,7.174-3.21,7.174-7.174
			c0-3.946-3.228-7.173-7.174-7.173H58.605V45.7c0-3.947-3.228-7.174-7.171-7.174c-3.964,0-7.172,3.228-7.172,7.174v30.96
			c0,0.113,0,0.207-0.02,0.301c0,9.139,5.114,15.802,15.646,16.086c0.17,0,0.34,0.019,0.528,0.019h17.74
			c3.946,0,7.174-3.228,7.174-7.175C85.332,81.928,82.104,78.718,78.158,78.718z"/>
	</g>
</g>
</svg>
