<?xml version="1.0" encoding="utf-8"?>
<!-- Generator: Adobe Illustrator 16.0.0, SVG Export Plug-In . SVG Version: 6.00 Build 0)  -->
<!DOCTYPE svg PUBLIC "-//W3C//DTD SVG 1.1//EN" "http://www.w3.org/Graphics/SVG/1.1/DTD/svg11.dtd">
<svg version="1.1" id="Layer_1" xmlns="http://www.w3.org/2000/svg" xmlns:xlink="http://www.w3.org/1999/xlink" x="0px" y="0px"
	 width="130px" height="130px" viewBox="0 0 130 130" enable-background="new 0 0 130 130" xml:space="preserve">
<g>
	<g id="Base_icon_copy_11_6_">
		<path fill="#20B6FF" d="M125.8,1H4.2C2.433,1,1,2.433,1,4.2v121.6c0,1.768,1.433,3.2,3.2,3.2h121.6c1.768,0,3.2-1.433,3.2-3.2V4.2
			C129,2.433,127.567,1,125.8,1z"/>
	</g>
	<g id="Shape_13_copy">
		<path fill="#FFFFFF" d="M68.037,54.811c7.282-4.372,11.168,1.775,7.442,8.735c-3.72,6.954-7.117,11.489-8.897,11.489
			c-1.776,0-3.143-4.654-5.177-12.787c-2.104-8.409-2.091-23.555-10.838-21.837C42.32,42.03,31.48,54.974,31.48,54.974l2.589,3.395
			c0,0,5.338-4.207,7.116-2.103c1.779,2.103,8.572,27.506,10.84,32.191c1.979,4.11,7.439,9.543,13.427,5.663
			c5.983-3.88,25.881-20.866,29.442-40.928C98.453,33.136,70.95,37.338,68.037,54.811z"/>
	</g>
</g>
</svg>
