<?xml version="1.0" encoding="utf-8"?>
<!-- Generator: Adobe Illustrator 16.0.0, SVG Export Plug-In . SVG Version: 6.00 Build 0)  -->
<!DOCTYPE svg PUBLIC "-//W3C//DTD SVG 1.1//EN" "http://www.w3.org/Graphics/SVG/1.1/DTD/svg11.dtd">
<svg version="1.1" id="Layer_1" xmlns="http://www.w3.org/2000/svg" xmlns:xlink="http://www.w3.org/1999/xlink" x="0px" y="0px"
	 width="130px" height="130px" viewBox="0 0 130 130" enable-background="new 0 0 130 130" xml:space="preserve">
<g>
	<g id="Base_icon_copy_11_8_">
		<path fill="#0481D9" d="M125.8,1H4.2C2.433,1,1,2.433,1,4.2v121.6c0,1.768,1.433,3.2,3.2,3.2h121.6c1.768,0,3.2-1.433,3.2-3.2V4.2
			C129,2.433,127.567,1,125.8,1z"/>
	</g>
	<g id="Shape_30">
		<ellipse fill="#FFFFFF" cx="65.75" cy="65.624" rx="34.605" ry="34.171"/>
	</g>
	<g id="Shape_16_copy">
		<path fill="#0481D9" d="M66.407,67.803l-9.222,26.352c2.752,0.799,5.664,1.233,8.682,1.233c3.575,0,7.008-0.608,10.2-1.718
			c-0.082-0.127-0.157-0.263-0.218-0.412L66.407,67.803z M35.145,65.155c0,11.962,7.067,22.308,17.315,27.204L37.806,52.856
			C36.101,56.614,35.145,60.775,35.145,65.155z M86.607,63.631c0-3.739-1.37-6.324-2.535-8.336c-1.557-2.49-3.017-4.598-3.017-7.093
			c0-2.776,2.137-5.362,5.161-5.362c0.133,0,0.264,0.018,0.394,0.024c-5.463-4.925-12.745-7.936-20.743-7.936
			c-10.732,0-20.177,5.418-25.667,13.628c0.722,0.021,1.399,0.035,1.975,0.035c3.215,0,8.19-0.389,8.19-0.389
			c1.65-0.09,1.85,2.303,0.194,2.495c0,0-1.664,0.19-3.518,0.287l11.19,32.741l6.72-19.833l-4.784-12.907
			c-1.655-0.096-3.224-0.287-3.224-0.287c-1.654-0.098-1.46-2.585,0.196-2.495c0,0,5.069,0.389,8.09,0.389
			c3.212,0,8.191-0.389,8.191-0.389c1.65-0.09,1.848,2.303,0.192,2.495c0,0-1.662,0.19-3.515,0.287l11.103,32.491l3.065-10.072
			C85.822,69.475,86.607,66.218,86.607,63.631z M92.82,50.654c0.138,0.963,0.213,1.997,0.213,3.111
			c0,3.064-0.584,6.513-2.338,10.825l-9.381,26.692c9.13-5.239,15.271-14.975,15.271-26.127
			C96.585,59.901,95.22,54.961,92.82,50.654z"/>
	</g>
</g>
</svg>
