<?xml version="1.0" encoding="utf-8"?>
<!-- Generator: Adobe Illustrator 16.0.0, SVG Export Plug-In . SVG Version: 6.00 Build 0)  -->
<!DOCTYPE svg PUBLIC "-//W3C//DTD SVG 1.1//EN" "http://www.w3.org/Graphics/SVG/1.1/DTD/svg11.dtd">
<svg version="1.1" id="Layer_1" xmlns="http://www.w3.org/2000/svg" xmlns:xlink="http://www.w3.org/1999/xlink" x="0px" y="0px"
	 width="130px" height="130px" viewBox="0 0 130 130" enable-background="new 0 0 130 130" xml:space="preserve">
<g>
	<g id="Base_icon_copy_7">
		<path fill="#AB47AC" d="M125.8,1H4.2C2.433,1,1,2.433,1,4.2v121.6c0,1.768,1.433,3.2,3.2,3.2h121.6c1.768,0,3.2-1.433,3.2-3.2V4.2
			C129,2.433,127.567,1,125.8,1z"/>
	</g>
	<g id="Shape_20">
		<path fill="#FFFFFF" d="M93.868,54.192c0.02-0.006,0.049-0.011,0.066-0.011l2.011-2.904c-0.028,0-0.077-0.006-0.1-0.006
			l0.212-0.316H67.887l1.084,4.435h7.689L63.721,67.067c-2.638-3.649-8.826-11.245-13.143-17.532h9.684v-3.374l0.111-0.743
			c-0.03-0.007-0.081-0.013-0.111-0.013v-0.304H28.145v4.434h9.523c3.696,2.891,17.837,20.547,18.424,22.307
			c0.233,1.646,0.451,11.383-0.241,12.117c-1.391,1.473-7.73,1.078-9.261,1.189l-0.527,3.015c2.792,0.082,11.883-0.229,14.71-0.229
			c5.565,0,15.319-0.021,16.697,0.084l0.171-3.168c-1.408-0.234-9.086-0.029-10.147-0.265C67.26,83.05,67,72.803,67.235,71.746
			c1.062-3.062,17.197-15.525,18.962-16c0.398-0.082,0.992-0.211,1.667-0.357h5.196L93.868,54.192z M90.872,79.965l4.317,0.344
			l5.027-19.419c-0.84-0.029-8.47-0.75-9.462-0.944L90.872,79.965z M90.127,83.078l0.023,4.739l2.188,0.188l2.359,0.176l0.69-4.64
			l-2.485-0.123L90.127,83.078z"/>
	</g>
</g>
</svg>
