<?xml version="1.0" encoding="utf-8"?>
<!-- Generator: Adobe Illustrator 16.0.0, SVG Export Plug-In . SVG Version: 6.00 Build 0)  -->
<!DOCTYPE svg PUBLIC "-//W3C//DTD SVG 1.1//EN" "http://www.w3.org/Graphics/SVG/1.1/DTD/svg11.dtd">
<svg version="1.1" id="Layer_1" xmlns="http://www.w3.org/2000/svg" xmlns:xlink="http://www.w3.org/1999/xlink" x="0px" y="0px"
	 width="130px" height="130px" viewBox="0 0 130 130" enable-background="new 0 0 130 130" xml:space="preserve">
<g>
	<g id="Base_icon_copy_12_6_">
		<path fill="#9DBC7A" d="M125.8,1H4.2C2.433,1,1,2.433,1,4.2v121.6c0,1.768,1.433,3.2,3.2,3.2h121.6c1.768,0,3.2-1.433,3.2-3.2V4.2
			C129,2.433,127.567,1,125.8,1z"/>
	</g>
	<g id="Zerply_icon">
		<path fill="#FFFFFF" d="M87.54,83.7c-12.265,9.271-22.178-7.228-34.303-7.777c3.718-5.431,12.607-13.518,17.931-19.878
			c7.353-8.78,15.156-14.112,13.134-20.81c-4.946,1.008-24.352,3.522-31.242-1.288c-1.155,2.098-4.81,6.018-3.689,10.006
			c1.635,3.945,12.395,3.082,17.744,2.476C58.601,57.482,50.755,66.092,45.22,71.82c-3.75,3.88-5.124,6.25-4.757,13.059
			c5.955-0.777,11.302-0.244,15.85,1.648c6.53,2.72,10.482,8.518,17.535,10.607C83.512,99.998,89.652,91.585,87.54,83.7z"/>
	</g>
</g>
</svg>
