<svg xmlns="http://www.w3.org/2000/svg" viewBox="0 0 534 463"><style>.st0{fill:#003b71}.st1,.st2{fill:none;stroke:#e27c00;stroke-width:4.7783;stroke-miterlimit:10}.st2{stroke:#231f20;stroke-width:4.7472;stroke-linecap:round}.st10,.st11,.st12,.st3,.st4,.st5,.st7,.st8,.st9{fill:none;stroke:#ffd70f;stroke-width:4.7783;stroke-miterlimit:10}.st10,.st11,.st12,.st4,.st5,.st7,.st8,.st9{stroke:#231f20}.st10,.st11,.st12,.st5,.st7,.st8,.st9{stroke:#eb6724}.st10,.st11,.st12,.st7,.st8,.st9{stroke:#003b71}.st10,.st11,.st12,.st8,.st9{stroke-width:4.7472;stroke-linecap:round}.st10,.st11,.st12,.st9{stroke:#ffd70f}.st10,.st11,.st12{stroke:#eb6724}.st11,.st12{stroke:#e27c00}.st12{stroke:#003b71;stroke-width:1.9511}</style><g id="Layer_1"><path class="st0" d="M157.5 24.6l-.2.6h-2.5l-2.4 8.2c-1 3.7-2.1 6.2-3.2 7.4-1.2 1.3-2.5 1.9-3.9 1.9-.8 0-1.5-.2-2.1-.5-.6-.4-.9-.8-.9-1.4 0-.3.1-.6.3-.8.2-.2.4-.3.7-.3.3 0 .6.1.7.3.2.2.3.5.3.7v.5c0 .2.1.3.3.5.2.2.5.2.8.2 1.1 0 2.1-.6 2.8-1.8.8-1.2 1.6-3.6 2.6-7.2l2.4-8h-2.7l.2-.6h2.7c0-.1.1-.4.2-.8 1.3-4.6 3.3-7 6.1-7 .8 0 1.4.2 1.8.5.4.4.6.7.6 1 0 .5-.2.7-.7.7-.4 0-.8-.3-1.2-1-.3-.5-.7-.7-1.1-.7-.6 0-1.2.3-1.8.9-.6.6-1.2 2.2-1.9 4.7l-.4 1.5h2.5zM157.1 32.3c0-1.1.3-2.3.8-3.7.5-1.3 1.3-2.4 2.2-3.2 1-.8 1.9-1.2 2.8-1.2.8 0 1.5.4 2 1.1.5.7.8 1.7.8 2.9 0 1.5-.3 2.8-.9 4.1-.6 1.3-1.3 2.3-2.2 3-.9.7-1.8 1-2.6 1s-1.5-.3-2-.9c-.6-.6-.9-1.6-.9-3.1zm1.5 1.6c0 .5.1.9.4 1.3.3.4.6.5 1.1.5 1.2 0 2.3-1.2 3.1-3.5.8-2.4 1.2-4.2 1.2-5.4 0-.6-.1-1.1-.4-1.4-.3-.3-.6-.5-1.1-.5-1.2 0-2.2 1.1-3 3.3-.9 2.1-1.3 4.1-1.3 5.7zM168.6 28h-.6c.4-1 .9-1.9 1.5-2.7.6-.7 1.2-1.1 1.8-1.1.4 0 .7.2.9.5.2.3.3.8.3 1.5 0 .8-.2 2-.6 3.5.1-.1.2-.4.5-1 .7-1.6 1.3-2.7 1.8-3.4.5-.7 1-1 1.6-1 .3 0 .6.1.8.3.2.2.3.5.3.7 0 .3-.1.5-.2.7-.2.2-.4.3-.6.3-.3 0-.5-.2-.8-.5-.1-.1-.2-.2-.3-.2-.5 0-1.2 1.1-2.1 3.4-1 2.2-1.8 4.3-2.4 6.3l-.3 1h-1.7l2.2-7.4c.4-1.4.6-2.4.6-2.9 0-.3 0-.5-.1-.6-.1-.1-.2-.2-.3-.2-.3 0-.7.3-1.2 1-.5.6-.9 1.2-1.1 1.8zM36.6 18.2c-.3-.4-.6-.8-1-1.2-.4-.3-.9-.6-1.4-.8-.5-.2-1.1-.3-1.6-.3-1 0-1.9.2-2.7.6-.7.4-1.3.9-1.8 1.6-.5.7-.8 1.5-1 2.3-.2.9-.3 1.8-.3 2.7 0 .9.1 1.8.3 2.6.2.8.5 1.6 1 2.3.5.7 1 1.2 1.8 1.6.7.4 1.6.6 2.7.6 1.4 0 2.5-.4 3.3-1.3.8-.9 1.3-2 1.5-3.4h4.5c-.1 1.3-.4 2.5-.9 3.6s-1.1 2-2 2.7c-.8.8-1.8 1.3-2.8 1.7-1.1.4-2.3.6-3.6.6-1.6 0-3.1-.3-4.4-.8-1.3-.6-2.4-1.3-3.3-2.3-.9-1-1.6-2.1-2-3.5-.5-1.3-.7-2.8-.7-4.3 0-1.6.2-3 .7-4.4.5-1.4 1.2-2.5 2-3.5.9-1 2-1.8 3.3-2.4 1.3-.6 2.8-.9 4.4-.9 1.2 0 2.3.2 3.3.5s2 .8 2.8 1.5c.8.6 1.5 1.4 2 2.4.5.9.9 2 1 3.3h-4.5c-.2-.5-.3-1-.6-1.5zM60.8 12.6v3.9H49.6V21h10.3v3.6H49.6v5.2H61v3.9H45V12.6h15.8zM68.8 12.6l8.8 14.2h.1V12.6h4.4v21.2h-4.7l-8.8-14.2h-.1v14.2h-4.4V12.6h4.7zM84.5 16.5v-3.9h17.3v3.9h-6.3v17.3h-4.7V16.5h-6.3zM120.1 12.6v3.9h-11.2V21h10.3v3.6h-10.3v5.2h11.4v3.9h-16.1V12.6h15.9zM134.9 12.6c.9 0 1.8.2 2.6.5s1.4.7 2 1.3c.5.5 1 1.2 1.2 1.9.3.7.4 1.5.4 2.3 0 1.2-.3 2.3-.8 3.2-.5.9-1.4 1.6-2.6 2.1v.1c.6.2 1 .4 1.4.7.4.3.7.7.9 1.2.2.4.4.9.5 1.5.1.5.2 1.1.2 1.6 0 .3 0 .7.1 1.2s.1.9.1 1.4c0 .5.1.9.2 1.3s.3.8.5 1.1H137c-.3-.7-.4-1.5-.5-2.4-.1-.9-.1-1.8-.3-2.7-.2-1.1-.5-1.9-1-2.4s-1.4-.8-2.5-.8H128V34h-4.7V12.6h11.6zm-1.7 9.6c1.1 0 1.9-.2 2.4-.7s.8-1.2.8-2.3c0-1-.3-1.8-.8-2.2-.5-.5-1.3-.7-2.4-.7h-5.1v6h5.1zM200.4 17.9c-.3-.4-.6-.8-1-1.2-.4-.3-.9-.6-1.4-.8-.5-.2-1.1-.3-1.6-.3-1 0-1.9.2-2.7.6-.7.4-1.3.9-1.8 1.6-.5.7-.8 1.5-1 2.3s-.3 1.8-.3 2.7c0 .9.1 1.8.3 2.6.2.8.5 1.6 1 2.3.5.7 1 1.2 1.8 1.6.7.4 1.6.6 2.7.6 1.4 0 2.5-.4 3.3-1.3.8-.9 1.3-2 1.5-3.4h4.5c-.1 1.3-.4 2.5-.9 3.6s-1.1 2-2 2.7c-.8.8-1.8 1.3-2.8 1.7-1.1.4-2.3.6-3.6.6-1.6 0-3.1-.3-4.4-.8-1.3-.6-2.4-1.3-3.3-2.3-.9-1-1.6-2.1-2-3.5-.5-1.3-.7-2.8-.7-4.3 0-1.6.2-3 .7-4.4.5-1.4 1.2-2.5 2-3.5.9-1 2-1.8 3.3-2.4 1.3-.6 2.8-.9 4.4-.9 1.2 0 2.3.2 3.3.5s2 .8 2.8 1.5c.8.6 1.5 1.4 2 2.4.5.9.9 2 1 3.3H201c-.1-.5-.3-1-.6-1.5zM208.6 18.6c.5-1.4 1.2-2.5 2-3.5.9-1 2-1.8 3.3-2.4 1.3-.6 2.8-.9 4.4-.9 1.6 0 3.1.3 4.4.9 1.3.6 2.4 1.4 3.3 2.4.9 1 1.6 2.2 2 3.5.5 1.4.7 2.8.7 4.4 0 1.5-.2 3-.7 4.3-.5 1.3-1.2 2.5-2 3.5-.9 1-2 1.8-3.3 2.3-1.3.6-2.7.8-4.4.8-1.6 0-3.1-.3-4.4-.8-1.3-.6-2.4-1.3-3.3-2.3-.9-1-1.6-2.1-2-3.5-.5-1.3-.7-2.8-.7-4.3 0-1.6.2-3.1.7-4.4zm4.2 7c.2.8.5 1.6 1 2.3.5.7 1 1.2 1.8 1.6.7.4 1.6.6 2.7.6 1 0 1.9-.2 2.7-.6.7-.4 1.3-.9 1.8-1.6.5-.7.8-1.4 1-2.3.2-.8.3-1.7.3-2.6 0-.9-.1-1.8-.3-2.7s-.5-1.6-1-2.3c-.5-.7-1-1.2-1.8-1.6-.7-.4-1.6-.6-2.7-.6-1 0-1.9.2-2.7.6-.7.4-1.3.9-1.8 1.6-.5.7-.8 1.5-1 2.3-.2.9-.3 1.8-.3 2.7 0 .9.1 1.7.3 2.6zM238.4 12.3l5 14.6h.1l4.7-14.6h6.6v21.2h-4.4v-15h-.1l-5.2 15h-3.6l-5.2-14.9h-.1v14.9h-4.4V12.3h6.6zM265.3 12.3l4.9 14.6h.1l4.7-14.6h6.6v21.2h-4.4v-15h-.1l-5.2 15h-3.6l-5.2-14.9h-.1v14.9h-4.4V12.3h6.7zM301.2 31.8c-1.6 1.4-3.8 2.1-6.6 2.1-2.9 0-5.1-.7-6.7-2.1-1.6-1.4-2.4-3.5-2.4-6.4V12.3h4.7v13.2c0 .6 0 1.1.1 1.7.1.6.3 1 .6 1.5.3.4.8.8 1.3 1 .6.3 1.3.4 2.3.4 1.7 0 2.8-.4 3.4-1.1.6-.7.9-1.9.9-3.5V12.3h4.7v13.2c.1 2.8-.7 5-2.3 6.3zM312.2 12.3l8.8 14.2h.1V12.3h4.4v21.2h-4.7L312 19.3v14.2h-4.4V12.3h4.6zM334.2 12.3v21.2h-4.7V12.3h4.7zM336.6 16.2v-3.9H354v3.9h-6.3v17.3H343V16.2h-6.4zM354.1 12.3h5.2l5 8.4 4.9-8.4h5.2l-7.9 13v8.1h-4.7v-8.2l-7.7-12.9z"/><g><path class="st0" d="M399.9 17.9c-.3-.4-.6-.8-1-1.2-.4-.3-.9-.6-1.4-.8-.5-.2-1.1-.3-1.6-.3-1 0-1.9.2-2.7.6-.7.4-1.3.9-1.8 1.6-.5.7-.8 1.5-1 2.3-.2.9-.3 1.8-.3 2.7 0 .9.1 1.8.3 2.6.2.8.5 1.6 1 2.3.5.7 1 1.2 1.8 1.6.7.4 1.6.6 2.7.6 1.4 0 2.5-.4 3.3-1.3.8-.9 1.3-2 1.5-3.4h4.5c-.1 1.3-.4 2.5-.9 3.6s-1.1 2-2 2.7c-.8.8-1.8 1.3-2.8 1.7-1.1.4-2.3.6-3.6.6-1.6 0-3.1-.3-4.4-.8-1.3-.6-2.4-1.3-3.3-2.3-.9-1-1.6-2.1-2-3.5-.5-1.3-.7-2.8-.7-4.3 0-1.6.2-3 .7-4.4.5-1.4 1.2-2.5 2-3.5.9-1 2-1.8 3.3-2.4 1.3-.6 2.8-.9 4.4-.9 1.2 0 2.3.2 3.3.5s2 .8 2.8 1.5c.8.6 1.5 1.4 2 2.4.5.9.9 2 1 3.3h-4.5c-.2-.5-.3-1-.6-1.5zM412.9 12.3v8.1h8.6v-8.1h4.7v21.2h-4.7v-9.1h-8.6v9.1h-4.7V12.3h4.7zM440.8 12.3l7.9 21.2h-4.8l-1.6-4.7h-7.9l-1.7 4.7H428l8-21.2h4.8zm.3 13l-2.7-7.8h-.1l-2.8 7.8h5.6zM455.2 12.3l8.8 14.2h.1V12.3h4.4v21.2h-4.7L455 19.3h-.1v14.2h-4.4V12.3h4.7zM485.1 33.3c-1 .4-2 .6-3.1.6-1.6 0-3.1-.3-4.4-.8-1.3-.6-2.4-1.3-3.3-2.3-.9-1-1.6-2.1-2-3.5-.5-1.3-.7-2.8-.7-4.3 0-1.6.2-3 .7-4.4.5-1.4 1.2-2.5 2-3.5.9-1 2-1.8 3.3-2.4 1.3-.6 2.8-.9 4.4-.9 1.1 0 2.1.2 3.2.5 1 .3 1.9.8 2.8 1.4.8.6 1.5 1.4 2 2.3.5.9.9 2 1 3.2h-4.4c-.3-1.2-.8-2.1-1.6-2.7-.8-.6-1.7-.9-2.9-.9-1 0-1.9.2-2.7.6-.7.4-1.3.9-1.8 1.6-.5.7-.8 1.5-1 2.3-.2.9-.3 1.8-.3 2.7 0 .9.1 1.8.3 2.6.2.8.5 1.6 1 2.3.5.7 1 1.2 1.8 1.6.7.4 1.6.6 2.7.6 1.5 0 2.7-.4 3.6-1.2.8-.8 1.3-1.9 1.5-3.4h-4.7V22h8.9v11.4h-3l-.5-2.4c-.9 1.1-1.8 1.9-2.8 2.3zM510.8 12.3v3.9h-11.2v4.5h10.3v3.6h-10.3v5.2H511v3.9h-16V12.3h15.8z"/></g><g><path class="st0" d="M70.4 414.4c-.2.3-.6.5-1 .5s-.7-.1-.9-.4c-.2-.2-.4-.5-.4-.9 0-.2.1-.6.3-1.2 0-.1-.1-.3-.2-.4-.1-.1-.3-.2-.5-.2-.8 0-1.5.9-2.1 2.7-.3 1-.7 2.8-1.1 5.3h3.8L68 421h-3.8L61 432c-.7 2.9-1.6 5.3-2.7 7.1s-2.6 2.7-4.4 2.7c-.8 0-1.5-.2-2-.7-.5-.4-.8-.9-.8-1.5 0-.3.1-.7.3-.9.2-.3.5-.4 1-.4.4 0 .7.1 1 .4.3.3.4.6.4.9 0 .2-.1.4-.2.6l-.2.4c0 .1.1.2.2.3.1.1.3.1.5.1 1 0 1.8-.8 2.4-2.3.3-.8.7-1.9 1-3.3l4-14.5h-3.1l.2-1.1h3.3c.6-2.6 1.3-4.6 2.1-5.8 1.1-1.9 2.5-2.9 4.2-2.9.8 0 1.4.2 1.9.7.5.4.8.9.8 1.5-.1.4-.2.7-.5 1.1zM75.1 419.4c0 .1.1.1.1.2v.3l-1.7 6.6.4-.8c.8-1.6 1.8-3 2.8-4.3 1.1-1.3 2.1-2 3.1-2 .5 0 .9.2 1.2.5.3.3.4.7.4 1.2s-.1.9-.4 1.3c-.3.3-.7.5-1.2.5-.3 0-.6-.1-.8-.2-.2-.1-.3-.3-.4-.5l-.2-.4c0-.1-.1-.1-.2-.2-.1 0-.1-.1-.2-.1-.4 0-1.1.6-1.9 1.8-.8 1.2-1.6 2.6-2.2 4-.4.9-.8 2-1.3 3.4-.3.9-.7 2.2-1.2 3.8h-2.6l2.8-10.1c.2-.6.3-1.1.4-1.6.1-.5.1-.8.1-1.1 0-.3-.1-.6-.3-.8-.2-.2-.5-.3-.9-.3h-.5c-.2 0-.4.1-.7.1v-.6l.7-.1c.9-.2 1.8-.4 2.9-.6 1-.2 1.6-.3 1.6-.3.1.2.1.2.2.3zM95 420.8c.8 1 1.2 2.2 1.2 3.6 0 2.4-1.1 4.7-3.2 7-2.2 2.4-4.5 3.6-6.9 3.6-1.6 0-2.8-.4-3.7-1.3-.9-.9-1.4-2.2-1.4-3.8 0-2.5 1-4.8 3.1-7.1s4.4-3.5 6.9-3.5c1.8 0 3.2.5 4 1.5zm-10.5 12.5c.5.6 1.1.9 2 .9 1.8 0 3.5-1.4 4.9-4.1 1.2-2.4 1.8-4.6 1.8-6.5 0-.8-.1-1.5-.3-2-.4-1-1.1-1.5-2.2-1.5-1.7 0-3.3 1.3-4.8 3.9-1.4 2.4-2.1 4.8-2.1 7.1 0 .8.2 1.6.7 2.2zM111.4 419.7c.5.4.8 1 .8 1.8 0 .4-.1.9-.3 1.6-.2.7-.5 1.8-1 3.3 1.3-1.9 2.3-3.4 3.2-4.4 1.6-1.8 3.1-2.7 4.3-2.7.5 0 1 .2 1.5.5s.7.9.7 1.7c0 .2-.1.8-.3 1.8l-2.7 9.2v.4c.1.2.2.2.4.2s.4-.1.5-.2c.2-.1.3-.3.6-.5.2-.2.4-.4.5-.6s.5-.7 1.2-1.5l.5.4-.2.2c-.8 1.1-1.6 2.1-2.4 2.7-.8.7-1.6 1-2.4 1-.4 0-.7-.1-.9-.3-.4-.3-.6-.8-.6-1.5v-.5c0-.2.1-.4.1-.6l2.6-9.5c0-.1.1-.2.1-.3v-.3c0-.3-.1-.5-.2-.6-.1-.1-.3-.2-.5-.2-.8 0-1.7.6-2.7 1.7-1 1.1-1.9 2.3-2.7 3.5-.7 1.2-1.2 2.2-1.5 3-.3.8-.8 2.6-1.5 5.3h-2.6l3.4-12c0-.1 0-.2.1-.3v-.3c0-.3-.1-.5-.2-.6-.1-.2-.3-.2-.6-.2-.7 0-1.6.6-2.7 1.8-1.1 1.2-1.9 2.3-2.6 3.3-.7 1-1.3 2.3-1.9 4-.4 1-.8 2.5-1.4 4.4h-2.6l3.2-12c0-.1.1-.2.1-.4v-.4c0-.4-.2-.7-.5-.8-.3-.1-.9-.1-1.8-.1v-.6c1.1-.2 3-.6 5.5-1.1l.1.1-1.9 6.9c1.3-1.8 2.5-3.4 3.6-4.6 1.6-1.6 2.9-2.4 4.1-2.4.9.4 1.3.5 1.6.7zM146.6 410c1.5 0 2.9.2 3.9.7 1.1.4 2 1 2.6 1.8.7.7 1.2 1.6 1.5 2.5.3.9.5 1.9.5 2.9s-.2 2-.5 2.9c-.3 1-.8 1.8-1.5 2.5s-1.6 1.3-2.6 1.8c-1.1.4-2.4.7-3.9.7H141v8.8h-5.4V410h11zm-1.4 11.6c.6 0 1.2 0 1.8-.1.6-.1 1.1-.3 1.5-.5.4-.3.8-.6 1.1-1.1.3-.5.4-1.1.4-1.9 0-.8-.1-1.4-.4-1.9-.3-.5-.6-.9-1.1-1.1-.4-.3-.9-.4-1.5-.5s-1.2-.1-1.8-.1H141v7.4h4.2zM171.8 410c1.1 0 2.1.2 3 .5.9.4 1.6.8 2.3 1.5.6.6 1.1 1.3 1.4 2.2s.5 1.7.5 2.6c0 1.4-.3 2.7-.9 3.8-.6 1.1-1.6 1.9-3 2.4v.1c.7.2 1.2.5 1.7.8s.8.8 1.1 1.3c.3.5.5 1.1.6 1.7.1.6.2 1.2.3 1.9 0 .4 0 .9.1 1.4 0 .5.1 1.1.1 1.6s.1 1.1.3 1.6c.1.5.3.9.6 1.3h-5.4c-.3-.8-.5-1.7-.6-2.8s-.2-2.1-.3-3.1c-.2-1.3-.6-2.2-1.2-2.8-.6-.6-1.6-.9-2.9-.9H164v9.6h-5.4V410h13.2zm-1.9 11.1c1.2 0 2.2-.3 2.8-.8.6-.6.9-1.4.9-2.7 0-1.2-.3-2.1-.9-2.6-.6-.5-1.6-.8-2.8-.8H164v6.9h5.9zM183.2 417.3c.6-1.6 1.3-3 2.4-4.1 1-1.2 2.3-2.1 3.8-2.8 1.5-.7 3.2-1 5.1-1 1.9 0 3.6.3 5.1 1 1.5.7 2.8 1.6 3.8 2.8 1 1.2 1.8 2.5 2.4 4.1.6 1.6.8 3.3.8 5.1 0 1.8-.3 3.5-.8 5-.6 1.6-1.3 2.9-2.4 4.1-1 1.2-2.3 2.1-3.8 2.7-1.5.7-3.2 1-5.1 1-1.9 0-3.6-.3-5.1-1-1.5-.7-2.8-1.6-3.8-2.7-1-1.2-1.8-2.5-2.4-4.1-.6-1.6-.8-3.2-.8-5 0-1.9.3-3.6.8-5.1zm5 8.1c.2 1 .6 1.9 1.2 2.6.5.8 1.2 1.4 2.1 1.9s1.9.7 3.1.7 2.3-.2 3.1-.7c.9-.5 1.5-1.1 2.1-1.9.5-.8.9-1.7 1.2-2.6.2-1 .4-2 .4-3 0-1.1-.1-2.1-.4-3.1-.2-1-.6-1.9-1.2-2.7-.5-.8-1.2-1.4-2.1-1.9-.9-.5-1.9-.7-3.1-.7s-2.3.2-3.1.7c-.9.5-1.5 1.1-2.1 1.9-.5.8-.9 1.7-1.2 2.7-.2 1-.4 2.1-.4 3.1s.1 2 .4 3zM208.4 414.5V410h20.2v4.6h-7.4v20.1h-5.4v-20.1h-7.4zM250.5 410v4.6h-13v5.3h11.9v4.2h-11.9v6h13.3v4.6h-18.7V410h18.4zM259.3 428.5c.3.6.7 1 1.2 1.4s1.1.6 1.7.8c.7.2 1.4.3 2.1.3.5 0 1 0 1.6-.1.6-.1 1.1-.2 1.6-.5.5-.2.9-.5 1.2-.9.3-.4.5-.9.5-1.5 0-.7-.2-1.2-.6-1.6-.4-.4-1-.8-1.7-1-.7-.3-1.5-.5-2.3-.7-.9-.2-1.8-.4-2.7-.7-.9-.2-1.8-.5-2.7-.8-.9-.3-1.7-.8-2.3-1.3s-1.2-1.2-1.7-2c-.4-.8-.6-1.8-.6-2.9 0-1.3.3-2.4.8-3.3s1.2-1.7 2.1-2.3c.9-.6 1.9-1.1 3-1.4 1.1-.3 2.2-.4 3.3-.4 1.3 0 2.5.1 3.7.4 1.2.3 2.2.8 3.2 1.4.9.6 1.7 1.5 2.2 2.5.5 1 .8 2.2.8 3.6h-5.2c0-.7-.2-1.3-.5-1.8s-.6-.9-1.1-1.1c-.4-.3-.9-.5-1.5-.6-.6-.1-1.2-.2-1.8-.2-.4 0-.9 0-1.3.1s-.8.3-1.2.5c-.4.2-.7.5-.9.9-.2.3-.3.8-.3 1.3s.1.9.3 1.2c.2.3.5.6 1.1.8.5.3 1.3.5 2.2.8 1 .3 2.2.6 3.7 1 .5.1 1.1.3 1.9.5.8.2 1.6.6 2.4 1.2.8.5 1.5 1.2 2.1 2.1.6.9.9 2 .9 3.4 0 1.1-.2 2.2-.7 3.1-.4 1-1.1 1.8-2 2.5-.9.7-1.9 1.2-3.2 1.6-1.3.4-2.8.6-4.4.6-1.4 0-2.7-.2-4-.5s-2.4-.9-3.4-1.6c-1-.7-1.8-1.6-2.3-2.7-.6-1.1-.9-2.4-.8-3.9h5.2c0 .6.1 1.3.4 1.8zM276.3 414.5V410h20.2v4.6h-7.4v20.1h-5.4v-20.1h-7.4zM309.3 433.2c0-.1 0-.2.1-.4l3.3-11.8H310c0-.3 0-.5.1-.6 0-.1.2-.2.3-.2 1.1-.5 2-1 2.7-1.4.6-.5 1.5-1.3 2.6-2.6l.3-.3.1-.1h.2c.1 0 .2 0 .2.1s.1.1.1.2v.2l-1 3.7h2.8l-.2 1.1h-2.9l-3.1 11.3c-.1.2 0 .4 0 .6.1.2.2.3.5.3s.7-.3 1.2-.9c.3-.3.8-.9 1.5-1.9l.4.3-.2.4c-1 1.4-1.8 2.5-2.6 3s-1.4.9-2.1.9c-.6 0-1-.2-1.2-.5s-.4-.6-.4-1c-.1-.2-.1-.3 0-.4zM331.8 420.8c.8 1 1.2 2.2 1.2 3.6 0 2.4-1.1 4.7-3.2 7-2.2 2.4-4.5 3.6-6.9 3.6-1.6 0-2.8-.4-3.7-1.3-.9-.9-1.4-2.2-1.4-3.8 0-2.5 1-4.8 3.1-7.1s4.4-3.5 6.9-3.5c1.9 0 3.2.5 4 1.5zm-10.4 12.5c.5.6 1.1.9 2 .9 1.8 0 3.5-1.4 4.9-4.1 1.2-2.4 1.8-4.6 1.8-6.5 0-.8-.1-1.5-.3-2-.4-1-1.1-1.5-2.2-1.5-1.7 0-3.3 1.3-4.8 3.9-1.4 2.4-2.1 4.8-2.1 7.1 0 .8.2 1.6.7 2.2zM358.6 410c1.5 0 2.9.2 3.9.7 1.1.4 2 1 2.6 1.8.7.7 1.2 1.6 1.5 2.5.3.9.5 1.9.5 2.9s-.2 2-.5 2.9c-.3 1-.8 1.8-1.5 2.5s-1.6 1.3-2.6 1.8c-1.1.4-2.4.7-3.9.7h-5.7v8.8h-5.4V410h11.1zm-1.5 11.6c.6 0 1.2 0 1.8-.1.6-.1 1.1-.3 1.5-.5.4-.3.8-.6 1.1-1.1.3-.5.4-1.1.4-1.9 0-.8-.1-1.4-.4-1.9-.3-.5-.6-.9-1.1-1.1-.4-.3-.9-.4-1.5-.5s-1.2-.1-1.8-.1h-4.2v7.4h4.2zM370.3 417.3c.6-1.6 1.3-3 2.4-4.1 1-1.2 2.3-2.1 3.8-2.8 1.5-.7 3.2-1 5.1-1 1.9 0 3.6.3 5.1 1 1.5.7 2.8 1.6 3.8 2.8 1 1.2 1.8 2.5 2.4 4.1.6 1.6.8 3.3.8 5.1 0 1.8-.3 3.5-.8 5-.6 1.6-1.3 2.9-2.4 4.1-1 1.2-2.3 2.1-3.8 2.7-1.5.7-3.2 1-5.1 1-1.9 0-3.6-.3-5.1-1-1.5-.7-2.8-1.6-3.8-2.7-1-1.2-1.8-2.5-2.4-4.1-.6-1.6-.8-3.2-.8-5-.1-1.9.2-3.6.8-5.1zm4.9 8.1c.2 1 .6 1.9 1.2 2.6.5.8 1.2 1.4 2.1 1.9s1.9.7 3.1.7 2.3-.2 3.1-.7c.9-.5 1.5-1.1 2.1-1.9.5-.8.9-1.7 1.2-2.6.2-1 .4-2 .4-3 0-1.1-.1-2.1-.4-3.1-.2-1-.6-1.9-1.2-2.7-.5-.8-1.2-1.4-2.1-1.9-.9-.5-1.9-.7-3.1-.7s-2.3.2-3.1.7c-.9.5-1.5 1.1-2.1 1.9-.5.8-.9 1.7-1.2 2.7-.2 1-.4 2.1-.4 3.1s.2 2 .4 3zM415.4 434.6l-4.2-16.8h-.1l-4.1 16.8h-5.5L395 410h5.4l3.9 16.8h.1l4.3-16.8h5.1l4.2 17h.1l4-17h5.3l-6.6 24.6h-5.4zM449.1 410v4.6h-13v5.3H448v4.2h-11.9v6h13.3v4.6h-18.7V410h18.4zM467 410c1.1 0 2.1.2 3 .5.9.4 1.6.8 2.3 1.5.6.6 1.1 1.3 1.4 2.2s.5 1.7.5 2.6c0 1.4-.3 2.7-.9 3.8-.6 1.1-1.6 1.9-3 2.4v.1c.7.2 1.2.5 1.7.8s.8.8 1.1 1.3c.3.5.5 1.1.6 1.7.1.6.2 1.2.3 1.9 0 .4 0 .9.1 1.4 0 .5.1 1.1.1 1.6s.1 1.1.3 1.6c.1.5.3.9.6 1.3h-5.4c-.3-.8-.5-1.7-.6-2.8s-.2-2.1-.3-3.1c-.2-1.3-.6-2.2-1.2-2.8-.6-.6-1.6-.9-2.9-.9h-5.4v9.6h-5.4V410H467zm-2 11.1c1.2 0 2.2-.3 2.8-.8.6-.6.9-1.4.9-2.7 0-1.2-.3-2.1-.9-2.6-.6-.5-1.6-.8-2.8-.8h-5.9v6.9h5.9z"/></g><g><path class="st1" d="M471.9 194.9c0 3.1-.1 6.1-.3 9.1-.9 17.2-4.7 33.5-10.6 48.3-2.2 5.4-4.6 10.6-7.4 15.6-7.7 13.9-17.5 26-28.9 35.4-4.1 3.4-8.3 6.4-12.7 9-12.1 7.2-25.4 11.7-39.4 12.9-2.4.2-4.9.3-7.4.3s-5-.1-7.4-.3c-14.1-1.2-27.4-5.7-39.4-12.9-4.4-2.7-8.7-5.7-12.7-9-11.4-9.4-21.2-21.5-28.9-35.4-2.7-5-5.2-10.2-7.3-15.6-5.9-14.8-9.6-31.1-10.6-48.3-.2-3-.3-6-.3-9 0-3.1.1-6.1.3-9.1.9-17.2 4.7-33.5 10.6-48.3 2.2-5.4 4.6-10.6 7.4-15.6 7.7-13.9 17.5-26 28.9-35.4 4.1-3.4 8.3-6.4 12.8-9 12.1-7.2 25.4-11.8 39.5-12.9 2.4-.2 4.9-.3 7.4-.3s5 .1 7.4.3c14.1 1.2 27.4 5.7 39.4 12.9 4.4 2.7 8.7 5.7 12.8 9C436.5 96 446.3 108 454 122c2.7 5 5.2 10.2 7.4 15.6 5.9 14.7 9.6 31 10.6 48.3-.2 2.9-.1 5.9-.1 9z"/><path class="st2" d="M236.6 74.9H70.1L53.2 187.5c142.4-13.3 145.4 83.2 115 125.9-31.1 43.6-78.6 49.8-139.1 24.8"/><path class="st3" d="M491.7 207c0 3.1-.1 6.1-.3 9.1-.9 17.2-4.7 33.5-10.6 48.3-2.2 5.4-4.6 10.6-7.4 15.6-7.7 13.9-17.5 26-28.9 35.4-4.1 3.4-8.3 6.4-12.7 9-12.1 7.2-25.4 11.7-39.4 12.9-2.4.2-4.9.3-7.4.3s-5-.1-7.4-.3c-14.1-1.2-27.4-5.7-39.4-12.9-4.4-2.7-8.7-5.7-12.7-9-11.4-9.4-21.2-21.5-28.9-35.4-2.7-5-5.2-10.2-7.3-15.6-5.9-14.8-9.6-31.1-10.6-48.3-.2-3-.3-6-.3-9 0-3.1.1-6.1.3-9.1.9-17.2 4.7-33.5 10.6-48.3 2.2-5.4 4.6-10.6 7.4-15.6 7.7-13.9 17.5-26 28.9-35.4 4.1-3.4 8.3-6.4 12.8-9 12.1-7.2 25.4-11.8 39.5-12.9 2.4-.2 4.9-.3 7.4-.3s5 .1 7.4.3c14.1 1.2 27.4 5.7 39.4 12.9 4.4 2.7 8.7 5.7 12.8 9 11.4 9.4 21.2 21.4 28.9 35.4 2.7 5 5.2 10.2 7.4 15.6 5.9 14.7 9.6 31 10.6 48.3-.2 2.9-.1 6-.1 9z"/><path class="st1" d="M512.2 208.1c0 3.1-.1 6.1-.3 9.1-1 17.2-5 33.5-11.4 48.3-2.3 5.4-5 10.6-7.9 15.6-8.3 13.9-18.9 26-31.1 35.4-4.4 3.4-8.9 6.4-13.7 9-13 7.2-27.3 11.7-42.5 12.9a106.93 106.93 0 0 1-16 0c-15.2-1.2-29.5-5.7-42.5-12.9-4.8-2.7-9.3-5.7-13.7-9-12.3-9.4-22.9-21.5-31.1-35.4-2.9-5-5.6-10.2-7.9-15.6-6.4-14.8-10.3-31.1-11.4-48.3-.2-3-.3-6-.3-9 0-3.1.1-6.1.3-9.1 1-17.2 5-33.5 11.4-48.3 2.3-5.4 5-10.6 7.9-15.6 8.3-13.9 18.9-26 31.1-35.4 4.4-3.4 9-6.4 13.7-9 13-7.2 27.3-11.8 42.5-12.9 2.6-.2 5.3-.3 7.9-.3 2.7 0 5.3.1 8 .3 15.2 1.2 29.5 5.7 42.5 12.9 4.8 2.7 9.4 5.7 13.7 9 12.3 9.4 22.8 21.4 31.1 35.4 2.9 5 5.6 10.2 7.9 15.6 6.4 14.7 10.3 31 11.4 48.3.3 2.9.4 5.9.4 9z"/><path class="st4" d="M476.9 204.9c0 3.1-.1 6.1-.3 9.1-.9 17.2-4.7 33.5-10.6 48.3-2.2 5.4-4.6 10.6-7.4 15.6-7.7 13.9-17.5 26-28.9 35.4-4.1 3.4-8.3 6.4-12.7 9-12.1 7.2-25.4 11.7-39.4 12.9-2.4.2-4.9.3-7.4.3s-5-.1-7.4-.3c-14.1-1.2-27.4-5.7-39.4-12.9-4.4-2.7-8.7-5.7-12.7-9-11.4-9.4-21.2-21.5-28.9-35.4-2.7-5-5.2-10.2-7.3-15.6-5.9-14.8-9.6-31.1-10.6-48.3-.2-3-.3-6-.3-9 0-3.1.1-6.1.3-9.1.9-17.2 4.7-33.5 10.6-48.3 2.2-5.4 4.6-10.6 7.4-15.6 7.7-13.9 17.5-26 28.9-35.4 4.1-3.4 8.3-6.4 12.8-9 12.1-7.2 25.4-11.8 39.5-12.9 2.4-.2 4.9-.3 7.4-.3s5 .1 7.4.3c14.1 1.2 27.4 5.7 39.4 12.9 4.4 2.7 8.7 5.7 12.8 9C441.5 106 451.3 118 459 132c2.7 5 5.2 10.2 7.4 15.6 5.9 14.7 9.6 31 10.6 48.3-.2 2.9-.1 5.9-.1 9z"/><path class="st5" d="M484.1 214.8c0 3.1-.1 6.1-.3 9.1-.9 17.2-4.7 33.5-10.6 48.3-2.2 5.4-4.6 10.6-7.4 15.6-7.7 13.9-17.5 26-28.9 35.4-4.1 3.4-8.3 6.4-12.7 9-12.1 7.2-25.4 11.7-39.4 12.9-2.4.2-4.9.3-7.4.3s-5-.1-7.4-.3c-14.1-1.2-27.4-5.7-39.4-12.9-4.4-2.7-8.7-5.7-12.7-9-11.4-9.4-21.2-21.5-28.9-35.4-2.7-5-5.2-10.2-7.3-15.6-5.9-14.8-9.6-31.1-10.6-48.3-.2-3-.3-6-.3-9 0-3.1.1-6.1.3-9.1.9-17.2 4.7-33.5 10.6-48.3 2.2-5.4 4.6-10.6 7.4-15.6 7.7-13.9 17.5-26 28.9-35.4 4.1-3.4 8.3-6.4 12.8-9 12.1-7.2 25.4-11.8 39.5-12.9 2.4-.2 4.9-.3 7.4-.3s5 .1 7.4.3c14.1 1.2 27.4 5.7 39.4 12.9 4.4 2.7 8.7 5.7 12.8 9 11.4 9.4 21.2 21.4 28.9 35.4 2.7 5 5.2 10.2 7.4 15.6 5.9 14.7 9.6 31 10.6 48.3-.2 3-.1 6-.1 9z"/><path d="M489.4 221.8c0 3.1-.1 6.1-.3 9.1-.9 17.2-4.7 33.5-10.6 48.3-2.2 5.4-4.6 10.6-7.4 15.6-7.7 13.9-17.5 26-28.9 35.4-4.1 3.4-8.3 6.4-12.7 9-12.1 7.2-25.4 11.7-39.4 12.9-2.4.2-4.9.3-7.4.3s-5-.1-7.4-.3c-14.1-1.2-27.4-5.7-39.4-12.9-4.4-2.7-8.7-5.7-12.7-9-11.4-9.4-21.2-21.5-28.9-35.4-2.7-5-5.2-10.2-7.3-15.6-5.9-14.8-9.6-31.1-10.6-48.3-.2-3-.3-6-.3-9 0-3.1.1-6.1.3-9.1.9-17.2 4.7-33.5 10.6-48.3 2.2-5.4 4.6-10.6 7.4-15.6 7.7-13.9 17.5-26 28.9-35.4 4.1-3.4 8.3-6.4 12.8-9 12.1-7.2 25.4-11.8 39.5-12.9 2.4-.2 4.9-.3 7.4-.3s5 .1 7.4.3c14.1 1.2 27.4 5.7 39.4 12.9 4.4 2.7 8.7 5.7 12.8 9 11.4 9.4 21.2 21.4 28.9 35.4 2.7 5 5.2 10.2 7.4 15.6 5.9 14.7 9.6 31 10.6 48.3-.2 3-.1 6-.1 9z" fill="none" stroke="#f09b1f" stroke-width="4.778" stroke-miterlimit="10"/><path class="st7" d="M473.6 197.9c0 3.1-.1 6.1-.3 9.1-.9 17.2-4.7 33.5-10.6 48.3-2.2 5.4-4.6 10.6-7.4 15.6-7.7 13.9-17.5 26-28.9 35.4-4.1 3.4-8.3 6.4-12.7 9-12.1 7.2-25.4 11.7-39.4 12.9-2.4.2-4.9.3-7.4.3s-5-.1-7.4-.3c-14.1-1.2-27.4-5.7-39.4-12.9-4.4-2.7-8.7-5.7-12.7-9-11.4-9.4-21.2-21.5-28.9-35.4-2.7-5-5.2-10.2-7.3-15.6-5.9-14.8-9.6-31.1-10.6-48.3-.2-3-.3-6-.3-9 0-3.1.1-6.1.3-9.1.9-17.2 4.7-33.5 10.6-48.3 2.2-5.4 4.6-10.6 7.4-15.6 7.7-13.9 17.5-26 28.9-35.4 4.1-3.4 8.3-6.4 12.8-9 12.1-7.2 25.4-11.8 39.5-12.9 2.4-.2 4.9-.3 7.4-.3s5 .1 7.4.3c14.1 1.2 27.4 5.7 39.4 12.9 4.4 2.7 8.7 5.7 12.8 9C438.2 99 448 111 455.7 125c2.7 5 5.2 10.2 7.4 15.6 5.9 14.7 9.6 31 10.6 48.3-.2 2.9-.1 5.9-.1 9z"/><path class="st1" d="M495.8 223.3c0 3.1-.1 6.1-.3 9.1-.9 17.2-4.7 33.5-10.6 48.3-2.2 5.4-4.6 10.6-7.4 15.6-7.7 13.9-17.5 26-28.9 35.4-4.1 3.4-8.3 6.4-12.7 9-12.1 7.2-25.4 11.7-39.4 12.9-2.4.2-4.9.3-7.4.3s-5-.1-7.4-.3c-14.1-1.2-27.4-5.7-39.4-12.9-4.4-2.7-8.7-5.7-12.7-9-11.4-9.4-21.2-21.5-28.9-35.4-2.7-5-5.2-10.2-7.3-15.6-5.9-14.8-9.6-31.1-10.6-48.3-.2-3-.3-6-.3-9 0-3.1.1-6.1.3-9.1.9-17.2 4.7-33.5 10.6-48.3 2.2-5.4 4.6-10.6 7.4-15.6 7.7-13.9 17.5-26 28.9-35.4 4.1-3.4 8.3-6.4 12.8-9 12.1-7.2 25.4-11.8 39.5-12.9 2.4-.2 4.9-.3 7.4-.3s5 .1 7.4.3c14.1 1.2 27.4 5.7 39.4 12.9 4.4 2.7 8.7 5.7 12.8 9 11.4 9.4 21.2 21.4 28.9 35.4 2.7 5 5.2 10.2 7.4 15.6 5.9 14.7 9.6 31 10.6 48.3-.1 2.9-.1 5.9-.1 9z"/><path class="st4" d="M496.1 241.2c0 3.1-.1 6.1-.3 9.1-.9 17.2-4.7 33.5-10.6 48.3-2.2 5.4-4.6 10.6-7.4 15.6-7.7 13.9-17.5 26-28.9 35.4-4.1 3.4-8.3 6.4-12.7 9-12.1 7.2-25.4 11.7-39.4 12.9-2.4.2-4.9.3-7.4.3s-5-.1-7.4-.3c-14.1-1.2-27.4-5.7-39.4-12.9-4.4-2.7-8.7-5.7-12.7-9-11.4-9.4-21.2-21.5-28.9-35.4-2.7-5-5.2-10.2-7.3-15.6-5.9-14.8-9.6-31.1-10.6-48.3-.2-3-.3-6-.3-9 0-3.1.1-6.1.3-9.1.9-17.2 4.7-33.5 10.6-48.3 2.2-5.4 4.6-10.6 7.4-15.6 7.7-13.9 17.5-26 28.9-35.4 4.1-3.4 8.3-6.4 12.8-9 12.1-7.2 25.4-11.8 39.5-12.9 2.4-.2 4.9-.3 7.4-.3s5 .1 7.4.3c14.1 1.2 27.4 5.7 39.4 12.9 4.4 2.7 8.7 5.7 12.8 9 11.4 9.4 21.2 21.4 28.9 35.4 2.7 5 5.2 10.2 7.4 15.6 5.9 14.7 9.6 31 10.6 48.3-.2 2.9-.1 5.9-.1 9z"/><path class="st5" d="M481.7 243.2c0 3.1-.1 6.1-.3 9.1-.9 17.2-4.7 33.5-10.6 48.3-2.2 5.4-4.6 10.6-7.4 15.6-7.7 13.9-17.5 26-28.9 35.4-4.1 3.4-8.3 6.4-12.7 9-12.1 7.2-25.4 11.7-39.4 12.9-2.4.2-4.9.3-7.4.3s-5-.1-7.4-.3c-14.1-1.2-27.4-5.7-39.4-12.9-4.4-2.7-8.7-5.7-12.7-9-11.4-9.4-21.2-21.5-28.9-35.4-2.7-5-5.2-10.2-7.3-15.6-5.9-14.8-9.6-31.1-10.6-48.3-.2-3-.3-6-.3-9 0-3.1.1-6.1.3-9.1.9-17.2 4.7-33.5 10.6-48.3 2.2-5.4 4.6-10.6 7.4-15.6 7.7-13.9 17.5-26 28.9-35.4 4.1-3.4 8.3-6.4 12.8-9 12.1-7.2 25.4-11.8 39.5-12.9 2.4-.2 4.9-.3 7.4-.3s5 .1 7.4.3c14.1 1.2 27.4 5.7 39.4 12.9 4.4 2.7 8.7 5.7 12.8 9 11.4 9.4 21.2 21.4 28.9 35.4 2.7 5 5.2 10.2 7.4 15.6 5.9 14.7 9.6 31 10.6 48.3-.2 2.9-.1 5.9-.1 9z"/><path class="st4" d="M491.2 224c0 3.1-.1 6.1-.3 9.1-.9 17.2-4.7 33.5-10.6 48.3-2.2 5.4-4.6 10.6-7.4 15.6-7.7 13.9-17.5 26-28.9 35.4-4.1 3.4-8.3 6.4-12.7 9-12.1 7.2-25.4 11.7-39.4 12.9-2.4.2-4.9.3-7.4.3s-5-.1-7.4-.3c-14.1-1.2-27.4-5.7-39.4-12.9-4.4-2.7-8.7-5.7-12.7-9-11.4-9.4-21.2-21.5-28.9-35.4-2.7-5-5.2-10.2-7.3-15.6-5.9-14.8-9.6-31.1-10.6-48.3-.2-3-.3-6-.3-9 0-3.1.1-6.1.3-9.1.9-17.2 4.7-33.5 10.6-48.3 2.2-5.4 4.6-10.6 7.4-15.6 7.7-13.9 17.5-26 28.9-35.4 4.1-3.4 8.3-6.4 12.8-9 12.1-7.2 25.4-11.8 39.5-12.9 2.4-.2 4.9-.3 7.4-.3s5 .1 7.4.3c14.1 1.2 27.4 5.7 39.4 12.9 4.4 2.7 8.7 5.7 12.8 9 11.4 9.4 21.2 21.4 28.9 35.4 2.7 5 5.2 10.2 7.4 15.6 5.9 14.7 9.6 31 10.6 48.3-.2 3-.1 6-.1 9z"/><path class="st7" d="M499.8 189.4c0 3.1-.1 6.1-.3 9.1-.9 17.2-4.7 33.5-10.6 48.3-2.2 5.4-4.6 10.6-7.4 15.6-7.7 13.9-17.5 26-28.9 35.4-4.1 3.4-8.3 6.4-12.7 9-12.1 7.2-25.4 11.7-39.4 12.9-2.4.2-4.9.3-7.4.3s-5-.1-7.4-.3c-14.1-1.2-27.4-5.7-39.4-12.9-4.4-2.7-8.7-5.7-12.7-9-11.4-9.4-21.2-21.5-28.9-35.4-2.7-5-5.2-10.2-7.3-15.6-5.9-14.8-9.6-31.1-10.6-48.3-.2-3-.3-6-.3-9 0-3.1.1-6.1.3-9.1.9-17.2 4.7-33.5 10.6-48.3 2.2-5.4 4.6-10.6 7.4-15.6 7.7-13.9 17.5-26 28.9-35.4 4.1-3.4 8.3-6.4 12.8-9 12.1-7.2 25.4-11.8 39.5-12.9 2.4-.2 4.9-.3 7.4-.3s5 .1 7.4.3c14.1 1.2 27.4 5.7 39.4 12.9 4.4 2.7 8.7 5.7 12.8 9 11.4 9.4 21.2 21.4 28.9 35.4 2.7 5 5.2 10.2 7.4 15.6 5.9 14.7 9.6 31 10.6 48.3-.2 3-.1 6-.1 9z"/><path class="st7" d="M491.3 224.9c0 3.1-.1 6.1-.3 9.1-.9 17.2-4.7 33.5-10.6 48.3-2.2 5.4-4.6 10.6-7.4 15.6-7.7 13.9-17.5 26-28.9 35.4-4.1 3.4-8.3 6.4-12.7 9-12.1 7.2-25.4 11.7-39.4 12.9-2.4.2-4.9.3-7.4.3s-5-.1-7.4-.3c-14.1-1.2-27.4-5.7-39.4-12.9-4.4-2.7-8.7-5.7-12.7-9-11.4-9.4-21.2-21.5-28.9-35.4-2.7-5-5.2-10.2-7.3-15.6-5.9-14.8-9.6-31.1-10.6-48.3-.2-3-.3-6-.3-9 0-3.1.1-6.1.3-9.1.9-17.2 4.7-33.5 10.6-48.3 2.2-5.4 4.6-10.6 7.4-15.6 7.7-13.9 17.5-26 28.9-35.4 4.1-3.4 8.3-6.4 12.8-9 12.1-7.2 25.4-11.8 39.5-12.9 2.4-.2 4.9-.3 7.4-.3s5 .1 7.4.3c14.1 1.2 27.4 5.7 39.4 12.9 4.4 2.7 8.7 5.7 12.8 9 11.4 9.4 21.2 21.4 28.9 35.4 2.7 5 5.2 10.2 7.4 15.6 5.9 14.7 9.6 31 10.6 48.3-.2 3-.1 6-.1 9z"/><path class="st1" d="M484.2 230.4c0 3.1-.1 6.1-.3 9.1-.9 17.2-4.7 33.5-10.6 48.3-2.2 5.4-4.6 10.6-7.4 15.6-7.7 13.9-17.5 26-28.9 35.4-4.1 3.4-8.3 6.4-12.7 9-12.1 7.2-25.4 11.7-39.4 12.9-2.4.2-4.9.3-7.4.3s-5-.1-7.4-.3c-14.1-1.2-27.4-5.7-39.4-12.9-4.4-2.7-8.7-5.7-12.7-9-11.4-9.4-21.2-21.5-28.9-35.4-2.7-5-5.2-10.2-7.3-15.6-5.9-14.8-9.6-31.1-10.6-48.3-.2-3-.3-6-.3-9 0-3.1.1-6.1.3-9.1.9-17.2 4.7-33.5 10.6-48.3 2.2-5.4 4.6-10.6 7.4-15.6 7.7-13.9 17.5-26 28.9-35.4 4.1-3.4 8.3-6.4 12.8-9 12.1-7.2 25.4-11.8 39.5-12.9 2.4-.2 4.9-.3 7.4-.3s5 .1 7.4.3c14.1 1.2 27.4 5.7 39.4 12.9 4.4 2.7 8.7 5.7 12.8 9 11.4 9.4 21.2 21.4 28.9 35.4 2.7 5 5.2 10.2 7.4 15.6 5.9 14.7 9.6 31 10.6 48.3-.2 3-.1 6-.1 9z"/><path class="st3" d="M510 244.1c0 3.1-.1 6.1-.3 9.1-.9 17.2-4.7 33.5-10.6 48.3-2.2 5.4-4.6 10.6-7.4 15.6-7.7 13.9-17.5 26-28.9 35.4-4.1 3.4-8.3 6.4-12.7 9-12.1 7.2-25.4 11.7-39.4 12.9-2.4.2-4.9.3-7.4.3s-5-.1-7.4-.3c-14.1-1.2-27.4-5.7-39.4-12.9-4.4-2.7-8.7-5.7-12.7-9-11.4-9.4-21.2-21.5-28.9-35.4-2.7-5-5.2-10.2-7.3-15.6-5.9-14.8-9.6-31.1-10.6-48.3-.2-3-.3-6-.3-9 0-3.1.1-6.1.3-9.1.9-17.2 4.7-33.5 10.6-48.3 2.2-5.4 4.6-10.6 7.4-15.6 7.7-13.9 17.5-26 28.9-35.4 4.1-3.4 8.3-6.4 12.8-9 12.1-7.2 25.4-11.8 39.5-12.9 2.4-.2 4.9-.3 7.4-.3s5 .1 7.4.3c14.1 1.2 27.4 5.7 39.4 12.9 4.4 2.7 8.7 5.7 12.8 9 11.4 9.4 21.2 21.4 28.9 35.4 2.7 5 5.2 10.2 7.4 15.6 5.9 14.7 9.6 31 10.6 48.3-.2 3-.1 6-.1 9z"/><path class="st8" d="M236.6 86.8H108.7l-17 112.6c142.4-13.3 145.4 83.2 115 125.9-31.1 43.6-112.8 48.5-176.7 8.2"/><path class="st8" d="M236.6 96.5H94.2l-17 112.6c142.4-13.3 145.4 83.2 115 125.9-31.1 43.6-100.5 44.3-164.7 14.2"/><path class="st9" d="M236.6 74.9H128.5l-16.9 112.6c142.4-13.3 145.4 83.2 115 125.9-31.1 43.6-134.3 32.8-194.9 7.8"/><path class="st10" d="M236.6 60.2H82.1l-17 112.6c142.4-13.3 145.4 83.2 115 125.9C149 342.2 92.5 344.1 32 319.1"/><path class="st8" d="M236.6 82H82.1l-17 112.6c142.4-13.3 145.4 83.2 115 125.9-31.1 43.6-90.9 45.3-151.4 20.3"/><path class="st9" d="M236.6 96.5H84.5l-17 112.6c142.4-13.3 145.4 83.2 115 125.9-31.1 43.6-90.9 46.3-155.5 16.9"/><path class="st8" d="M236.6 62.6H103.8L86.9 175.2c142.4-13.3 145.4 83.2 115 125.9C170.8 344.7 98.1 342.5 33 314"/><path class="st2" d="M236.6 72.3H113.5L96.6 184.9c142.4-13.3 145.4 83.2 115 125.9-31.1 43.5-111.7 50-180.2 14.2"/><path class="st11" d="M236.6 89.7H122.8l-16.9 112.6c142.4-13.3 145.4 83.2 115 125.9-31.1 43.6-135.4 42.2-191 3.7"/><path class="st11" d="M236.6 101.3H100.2L83.3 213.9c142.4-13.3 145.4 83.2 115 125.9-31.1 43.6-100.4 49.9-171.6 15.1"/><path class="st9" d="M236.6 88H86.9l-17 112.6c142.4-13.3 145.4 83.2 115 125.9-31.1 43.6-93 48-157 18.7"/><path class="st10" d="M236.6 86.7h-136L83.7 199.3c142.4-13.3 145.1 83 115 125.9-33 47.1-105.1 54.8-168.9 9.3"/><path class="st8" d="M236.6 75.1H107L90.1 187.6c142.4-13.3 144.5 82.6 115 125.9-30 44-103.8 54.1-174.2 13.9"/><path class="st11" d="M236.6 63.4H72.5L55.6 176c142.4-13.3 145.4 83.2 115 125.9-31.1 43.6-79.5 53-140.1 28"/></g><path class="st12" d="M21.8 397.9h490.3M21.8 448.4h490.3"/></g></svg>